<?xml version="1.0" encoding="UTF-8"?>
<!DOCTYPE svg PUBLIC "-//W3C//DTD SVG 1.1//EN" "http://www.w3.org/Graphics/SVG/1.1/DTD/svg11.dtd">
<svg xmlns="http://www.w3.org/2000/svg" version="1.1" width="4501px" height="4500px" style="shape-rendering:geometricPrecision; text-rendering:geometricPrecision; image-rendering:optimizeQuality; fill-rule:evenodd; clip-rule:evenodd" xmlns:xlink="http://www.w3.org/1999/xlink">
<g><path style="opacity:0.992" fill="#feed6e" d="M 1718.5,455.5 C 1764.67,451.508 1801.17,468.175 1828,505.5C 1847.51,538.553 1850.84,573.22 1838,609.5C 1820.83,647.675 1791.66,670.508 1750.5,678C 1703.12,683.217 1665.95,666.384 1639,627.5C 1615.14,585.756 1615.81,544.422 1641,503.5C 1660.34,476.987 1686.17,460.987 1718.5,455.5 Z"/></g>
<g><path style="opacity:0.929" fill="#feed6f" d="M 2361.5,527.5 C 2336.83,527.5 2312.17,527.5 2287.5,527.5C 2267.72,515.771 2247.72,504.271 2227.5,493C 2272.62,502.946 2317.29,514.446 2361.5,527.5 Z"/></g>
<g><path style="opacity:0.989" fill="#fceb73" d="M 2287.5,527.5 C 2312.17,527.5 2336.83,527.5 2361.5,527.5C 2494.62,563.037 2624.28,608.204 2750.5,663C 2765.15,669.372 2779.48,676.206 2793.5,683.5C 2693.5,683.5 2593.5,683.5 2493.5,683.5C 2429.07,625.708 2360.4,573.708 2287.5,527.5 Z"/></g>
<g><path style="opacity:0.955" fill="#555454" d="M 1470.5,1169.5 C 1456.58,1171.13 1442.58,1172.46 1428.5,1173.5C 1386.22,1008.93 1348.72,843.267 1316,676.5C 1311.46,654.592 1307.79,632.592 1305,610.5C 1351.38,799.474 1406.55,985.807 1470.5,1169.5 Z"/></g>
<g><path style="opacity:0.995" fill="#faea78" d="M 2493.5,683.5 C 2593.5,683.5 2693.5,683.5 2793.5,683.5C 2854.55,711.51 2912.88,743.844 2968.5,780.5C 2842.5,780.5 2716.5,780.5 2590.5,780.5C 2559.17,747.167 2526.83,714.833 2493.5,683.5 Z"/></g>
<g><path style="opacity:0.996" fill="#f8e97b" d="M 2590.5,780.5 C 2716.5,780.5 2842.5,780.5 2968.5,780.5C 2996.57,797.905 3023.24,817.239 3048.5,838.5C 2911.83,838.5 2775.17,838.5 2638.5,838.5C 2622.88,818.875 2606.88,799.542 2590.5,780.5 Z"/></g>
<g><path style="opacity:0.997" fill="#f7e87e" d="M 2638.5,838.5 C 2775.17,838.5 2911.83,838.5 3048.5,838.5C 3089.67,869.662 3126.67,905.329 3159.5,945.5C 3010.83,945.5 2862.17,945.5 2713.5,945.5C 2690.48,908.473 2665.48,872.807 2638.5,838.5 Z"/></g>
<g><path style="opacity:0.997" fill="#f5e782" d="M 2713.5,945.5 C 2862.17,945.5 3010.83,945.5 3159.5,945.5C 3170.52,958.359 3181.02,971.693 3191,985.5C 3199.61,997.72 3207.44,1010.39 3214.5,1023.5C 3061.5,1023.5 2908.5,1023.5 2755.5,1023.5C 2742.01,997.189 2728.01,971.189 2713.5,945.5 Z"/></g>
<g><path style="opacity:0.998" fill="#f4e684" d="M 2755.5,1023.5 C 2908.5,1023.5 3061.5,1023.5 3214.5,1023.5C 3227.91,1045.02 3239.24,1067.69 3248.5,1091.5C 3093.83,1091.5 2939.17,1091.5 2784.5,1091.5C 2775.39,1068.61 2765.72,1045.94 2755.5,1023.5 Z"/></g>
<g><path style="opacity:0.998" fill="#f2e587" d="M 2784.5,1091.5 C 2939.17,1091.5 3093.83,1091.5 3248.5,1091.5C 3259.32,1120.13 3267.66,1149.46 3273.5,1179.5C 3119.83,1179.5 2966.17,1179.5 2812.5,1179.5C 2804.58,1149.73 2795.24,1120.4 2784.5,1091.5 Z"/></g>
<g><path style="opacity:0.998" fill="#b8b8b8" d="M 1590.5,1164.5 C 1590.5,1263.83 1590.5,1363.17 1590.5,1462.5C 1588.95,1463.44 1587.28,1464.11 1585.5,1464.5C 1563.12,1473.86 1541.45,1484.53 1520.5,1496.5C 1513.37,1499.9 1506.37,1503.57 1499.5,1507.5C 1499.5,1394.17 1499.5,1280.83 1499.5,1167.5C 1529.8,1165.7 1560.14,1164.7 1590.5,1164.5 Z"/></g>
<g><path style="opacity:0.997" fill="#b5b6b4" d="M 1590.5,1164.5 C 1593.5,1164.5 1596.5,1164.5 1599.5,1164.5C 1599.5,1262.5 1599.5,1360.5 1599.5,1458.5C 1596.69,1460.07 1593.69,1461.4 1590.5,1462.5C 1590.5,1363.17 1590.5,1263.83 1590.5,1164.5 Z"/></g>
<g><path style="opacity:0.997" fill="#b2b2b1" d="M 1599.5,1164.5 C 1636.18,1164.31 1672.85,1164.98 1709.5,1166.5C 1709.5,1250.83 1709.5,1335.17 1709.5,1419.5C 1672.32,1430.89 1635.66,1443.89 1599.5,1458.5C 1599.5,1360.5 1599.5,1262.5 1599.5,1164.5 Z"/></g>
<g><path style="opacity:0.997" fill="#aeafad" d="M 1709.5,1166.5 C 1713.86,1166.59 1718.19,1166.92 1722.5,1167.5C 1722.5,1250.17 1722.5,1332.83 1722.5,1415.5C 1718.41,1417.28 1714.07,1418.61 1709.5,1419.5C 1709.5,1335.17 1709.5,1250.83 1709.5,1166.5 Z"/></g>
<g><path style="opacity:0.997" fill="#bbbcba" d="M 1499.5,1167.5 C 1499.5,1280.83 1499.5,1394.17 1499.5,1507.5C 1496.66,1509.42 1493.66,1511.09 1490.5,1512.5C 1490.5,1397.83 1490.5,1283.17 1490.5,1168.5C 1493.29,1167.52 1496.29,1167.19 1499.5,1167.5 Z"/></g>
<g><path style="opacity:0.996" fill="#ababab" d="M 1722.5,1167.5 C 1753.21,1168.84 1783.88,1170.84 1814.5,1173.5C 1814.5,1246.83 1814.5,1320.17 1814.5,1393.5C 1783.68,1400.21 1753.01,1407.54 1722.5,1415.5C 1722.5,1332.83 1722.5,1250.17 1722.5,1167.5 Z"/></g>
<g><path style="opacity:0.998" fill="#bebebe" d="M 1490.5,1168.5 C 1490.5,1283.17 1490.5,1397.83 1490.5,1512.5C 1457.15,1531.86 1425.15,1553.2 1394.5,1576.5C 1394.5,1443.5 1394.5,1310.5 1394.5,1177.5C 1405.79,1175.84 1417.12,1174.51 1428.5,1173.5C 1442.58,1172.46 1456.58,1171.13 1470.5,1169.5C 1477.14,1168.79 1483.81,1168.45 1490.5,1168.5 Z"/></g>
<g><path style="opacity:0.995" fill="#a8a9a7" d="M 1814.5,1173.5 C 1817.54,1173.51 1820.54,1173.84 1823.5,1174.5C 1823.5,1246.83 1823.5,1319.17 1823.5,1391.5C 1820.58,1392.42 1817.58,1393.08 1814.5,1393.5C 1814.5,1320.17 1814.5,1246.83 1814.5,1173.5 Z"/></g>
<g><path style="opacity:0.996" fill="#a5a5a5" d="M 1823.5,1174.5 C 1853.88,1177.04 1884.21,1180.04 1914.5,1183.5C 1914.5,1247.83 1914.5,1312.17 1914.5,1376.5C 1884.04,1380.74 1853.71,1385.74 1823.5,1391.5C 1823.5,1319.17 1823.5,1246.83 1823.5,1174.5 Z"/></g>
<g><path style="opacity:0.997" fill="#c4c4c4" d="M 1390.5,1177.5 C 1390.5,1311.5 1390.5,1445.5 1390.5,1579.5C 1356.31,1607.02 1324.31,1637.02 1294.5,1669.5C 1294.5,1511.17 1294.5,1352.83 1294.5,1194.5C 1326.38,1187.97 1358.38,1182.3 1390.5,1177.5 Z"/></g>
<g><path style="opacity:0.997" fill="#c1c2c0" d="M 1390.5,1177.5 C 1391.83,1177.5 1393.17,1177.5 1394.5,1177.5C 1394.5,1310.5 1394.5,1443.5 1394.5,1576.5C 1393.74,1578.26 1392.4,1579.26 1390.5,1579.5C 1390.5,1445.5 1390.5,1311.5 1390.5,1177.5 Z"/></g>
<g><path style="opacity:0.998" fill="#f0e38c" d="M 2812.5,1179.5 C 2966.17,1179.5 3119.83,1179.5 3273.5,1179.5C 3281.97,1231.07 3282.63,1282.74 3275.5,1334.5C 3129.17,1334.5 2982.83,1334.5 2836.5,1334.5C 2833.18,1282.24 2825.18,1230.58 2812.5,1179.5 Z"/></g>
<g><path style="opacity:0.995" fill="#a2a3a1" d="M 1914.5,1183.5 C 1919.17,1184.17 1923.83,1184.83 1928.5,1185.5C 1928.5,1248.5 1928.5,1311.5 1928.5,1374.5C 1923.85,1375.26 1919.18,1375.93 1914.5,1376.5C 1914.5,1312.17 1914.5,1247.83 1914.5,1183.5 Z"/></g>
<g><path style="opacity:0.995" fill="#9f9f9f" d="M 1928.5,1185.5 C 1957.41,1188.7 1986.08,1192.7 2014.5,1197.5C 2014.5,1253.5 2014.5,1309.5 2014.5,1365.5C 1985.95,1368.22 1957.28,1371.22 1928.5,1374.5C 1928.5,1311.5 1928.5,1248.5 1928.5,1185.5 Z"/></g>
<g><path style="opacity:0.997" fill="#c7c8c6" d="M 1294.5,1194.5 C 1294.5,1352.83 1294.5,1511.17 1294.5,1669.5C 1293.17,1671.5 1291.5,1673.17 1289.5,1674.5C 1289.5,1515.17 1289.5,1355.83 1289.5,1196.5C 1291.03,1195.69 1292.69,1195.02 1294.5,1194.5 Z"/></g>
<g><path style="opacity:0.997" fill="#cbcbcb" d="M 1289.5,1196.5 C 1289.5,1355.83 1289.5,1515.17 1289.5,1674.5C 1243.1,1727.26 1203.76,1784.92 1171.5,1847.5C 1171.5,1642.17 1171.5,1436.83 1171.5,1231.5C 1209.78,1216.63 1249.11,1204.97 1289.5,1196.5 Z"/></g>
<g><path style="opacity:0.995" fill="#9c9d9b" d="M 2014.5,1197.5 C 2019.39,1197.53 2024.06,1198.2 2028.5,1199.5C 2028.5,1254.5 2028.5,1309.5 2028.5,1364.5C 2023.93,1365.44 2019.26,1365.77 2014.5,1365.5C 2014.5,1309.5 2014.5,1253.5 2014.5,1197.5 Z"/></g>
<g><path style="opacity:0.995" fill="#999998" d="M 2028.5,1199.5 C 2063.67,1204.19 2098.67,1209.86 2133.5,1216.5C 2133.5,1264.5 2133.5,1312.5 2133.5,1360.5C 2098.48,1361.32 2063.48,1362.65 2028.5,1364.5C 2028.5,1309.5 2028.5,1254.5 2028.5,1199.5 Z"/></g>
<g><path style="opacity:0.994" fill="#959694" d="M 2133.5,1216.5 C 2139.54,1217.28 2145.54,1218.28 2151.5,1219.5C 2151.5,1266.5 2151.5,1313.5 2151.5,1360.5C 2145.5,1360.5 2139.5,1360.5 2133.5,1360.5C 2133.5,1312.5 2133.5,1264.5 2133.5,1216.5 Z"/></g>
<g><path style="opacity:0.993" fill="#929291" d="M 2151.5,1219.5 C 2180.6,1224.79 2209.6,1230.45 2238.5,1236.5C 2238.5,1278.17 2238.5,1319.83 2238.5,1361.5C 2209.51,1360.66 2180.51,1360.33 2151.5,1360.5C 2151.5,1313.5 2151.5,1266.5 2151.5,1219.5 Z"/></g>
<g><path style="opacity:0.997" fill="#d1d1d1" d="M 1171.5,1231.5 C 1171.5,1436.83 1171.5,1642.17 1171.5,1847.5C 1118.4,1956.47 1084.73,2071.14 1070.5,2191.5C 1070.5,1887.5 1070.5,1583.5 1070.5,1279.5C 1102.61,1260.45 1136.28,1244.45 1171.5,1231.5 Z"/></g>
<g><path style="opacity:0.995" fill="#8f908e" d="M 2238.5,1236.5 C 2242.83,1237.17 2247.17,1237.83 2251.5,1238.5C 2251.5,1279.5 2251.5,1320.5 2251.5,1361.5C 2247.17,1361.5 2242.83,1361.5 2238.5,1361.5C 2238.5,1319.83 2238.5,1278.17 2238.5,1236.5 Z"/></g>
<g><path style="opacity:0.989" fill="#8c8c8b" d="M 2251.5,1238.5 C 2448.82,1279.91 2643.82,1330.25 2836.5,1389.5C 2837.23,1390.71 2837.57,1392.04 2837.5,1393.5C 2837.13,1408.89 2836.13,1424.22 2834.5,1439.5C 2642.41,1396.87 2448.08,1370.87 2251.5,1361.5C 2251.5,1320.5 2251.5,1279.5 2251.5,1238.5 Z"/></g>
<g><path style="opacity:0.995" fill="#d4d5d3" d="M 1070.5,1279.5 C 1070.5,1583.5 1070.5,1887.5 1070.5,2191.5C 1069.62,2204.02 1068.28,2216.36 1066.5,2228.5C 1066.5,1912.83 1066.5,1597.17 1066.5,1281.5C 1067.83,1280.83 1069.17,1280.17 1070.5,1279.5 Z"/></g>
<g><path style="opacity:0.997" fill="#d7d7d7" d="M 1066.5,1281.5 C 1066.5,1597.17 1066.5,1912.83 1066.5,2228.5C 1055.13,2364.15 1061.96,2498.82 1087,2632.5C 1042.86,2545.55 1002.69,2456.89 966.5,2366.5C 966.5,2030.83 966.5,1695.17 966.5,1359.5C 996.659,1329.33 1029.99,1303.33 1066.5,1281.5 Z"/></g>
<g><path style="opacity:0.998" fill="#eee290" d="M 2836.5,1334.5 C 2982.83,1334.5 3129.17,1334.5 3275.5,1334.5C 3272.99,1354.39 3269.32,1374.06 3264.5,1393.5C 3122.17,1393.5 2979.83,1393.5 2837.5,1393.5C 2837.57,1392.04 2837.23,1390.71 2836.5,1389.5C 2837.1,1371.2 2837.1,1352.87 2836.5,1334.5 Z"/></g>
<g><path style="opacity:0.997" fill="#dddddd" d="M 966.5,1359.5 C 966.5,1695.17 966.5,2030.83 966.5,2366.5C 925.686,2269.06 892.019,2169.06 865.5,2066.5C 865.5,1881.83 865.5,1697.17 865.5,1512.5C 888.948,1454.56 922.615,1403.56 966.5,1359.5 Z"/></g>
<g><path style="opacity:0.998" fill="#ece193" d="M 2837.5,1393.5 C 2979.83,1393.5 3122.17,1393.5 3264.5,1393.5C 3256.37,1426.56 3246.04,1458.89 3233.5,1490.5C 3098.5,1490.5 2963.5,1490.5 2828.5,1490.5C 2831.23,1473.63 2833.23,1456.63 2834.5,1439.5C 2836.13,1424.22 2837.13,1408.89 2837.5,1393.5 Z"/></g>
<g><path style="opacity:0.989" fill="#565555" d="M 1585.5,1464.5 C 1607.28,1513.4 1629.62,1562.07 1652.5,1610.5C 1652.5,1699.5 1652.5,1788.5 1652.5,1877.5C 1603.77,1752.31 1559.77,1625.31 1520.5,1496.5C 1541.45,1484.53 1563.12,1473.86 1585.5,1464.5 Z"/></g>
<g><path style="opacity:0.998" fill="#ebe096" d="M 2828.5,1490.5 C 2963.5,1490.5 3098.5,1490.5 3233.5,1490.5C 3229.83,1499.84 3226.16,1509.17 3222.5,1518.5C 3219.74,1521.68 3217.74,1525.35 3216.5,1529.5C 3085.17,1529.5 2953.83,1529.5 2822.5,1529.5C 2825.04,1516.59 2827.04,1503.59 2828.5,1490.5 Z"/></g>
<g><path style="opacity:0.985" fill="#e1e1e1" d="M 865.5,1512.5 C 865.5,1697.17 865.5,1881.83 865.5,2066.5C 837.829,1965.64 823.163,1862.8 821.5,1758C 820.415,1680.01 832.582,1604.18 858,1530.5C 860.276,1524.3 862.776,1518.3 865.5,1512.5 Z"/></g>
<g><path style="opacity:0.905" fill="#8c8c8b" d="M 3222.5,1518.5 C 3307.55,1548.79 3391.88,1580.96 3475.5,1615C 3431.8,1601.77 3388.13,1588.1 3344.5,1574C 3301.3,1560.65 3257.96,1547.82 3214.5,1535.5C 3214.6,1533.3 3215.27,1531.3 3216.5,1529.5C 3217.74,1525.35 3219.74,1521.68 3222.5,1518.5 Z"/></g>
<g><path style="opacity:0.997" fill="#e9df99" d="M 2822.5,1529.5 C 2953.83,1529.5 3085.17,1529.5 3216.5,1529.5C 3215.27,1531.3 3214.6,1533.3 3214.5,1535.5C 3193.07,1580.38 3169.07,1623.71 3142.5,1665.5C 3023.83,1665.5 2905.17,1665.5 2786.5,1665.5C 2801.62,1621 2813.62,1575.67 2822.5,1529.5 Z"/></g>
<g><path style="opacity:0.992" fill="#585757" d="M 1652.5,1610.5 C 1663.83,1632.49 1675.16,1654.49 1686.5,1676.5C 1686.5,1771.83 1686.5,1867.17 1686.5,1962.5C 1674.38,1934.57 1663.04,1906.24 1652.5,1877.5C 1652.5,1788.5 1652.5,1699.5 1652.5,1610.5 Z"/></g>
<g><path style="opacity:0.997" fill="#e8de9d" d="M 2786.5,1665.5 C 2905.17,1665.5 3023.83,1665.5 3142.5,1665.5C 3133.83,1678.5 3125.17,1691.5 3116.5,1704.5C 3001.83,1704.5 2887.17,1704.5 2772.5,1704.5C 2777.17,1691.5 2781.83,1678.5 2786.5,1665.5 Z"/></g>
<g><path style="opacity:0.993" fill="#5b5a5a" d="M 1686.5,1676.5 C 1737.13,1773.14 1793.8,1865.8 1856.5,1954.5C 1856.5,2076.5 1856.5,2198.5 1856.5,2320.5C 1804.64,2227.78 1757.81,2132.45 1716,2034.5C 1705.86,2010.58 1696.03,1986.58 1686.5,1962.5C 1686.5,1867.17 1686.5,1771.83 1686.5,1676.5 Z"/></g>
<g><path style="opacity:0.996" fill="#e6dda0" d="M 2772.5,1704.5 C 2887.17,1704.5 3001.83,1704.5 3116.5,1704.5C 3088.72,1744.94 3059.05,1783.94 3027.5,1821.5C 2924.83,1821.5 2822.17,1821.5 2719.5,1821.5C 2739.12,1783.27 2756.79,1744.27 2772.5,1704.5 Z"/></g>
<g><path style="opacity:0.991" fill="#8b8c8a" d="M 3426.5,1744.5 C 3473.4,1741.2 3509.9,1758.87 3536,1797.5C 3559.83,1841.62 3557.49,1884.28 3529,1925.5C 3492.72,1966.58 3448.55,1978.08 3396.5,1960C 3347.5,1935.86 3325,1896.36 3329,1841.5C 3339.46,1786.88 3371.96,1754.54 3426.5,1744.5 Z"/></g>
<g><path style="opacity:0.995" fill="#e3dca5" d="M 2719.5,1821.5 C 2822.17,1821.5 2924.83,1821.5 3027.5,1821.5C 2983.06,1875.29 2936.06,1926.95 2886.5,1976.5C 2800.17,1976.5 2713.83,1976.5 2627.5,1976.5C 2660.53,1926.42 2691.2,1874.75 2719.5,1821.5 Z"/></g>
<g><path style="opacity:0.995" fill="#5e5d5d" d="M 1856.5,1954.5 C 1867.91,1970.31 1879.58,1985.97 1891.5,2001.5C 1891.5,2128.17 1891.5,2254.83 1891.5,2381.5C 1879.08,2361.66 1867.41,2341.33 1856.5,2320.5C 1856.5,2198.5 1856.5,2076.5 1856.5,1954.5 Z"/></g>
<g><path style="opacity:0.994" fill="#e1dba9" d="M 2627.5,1976.5 C 2713.83,1976.5 2800.17,1976.5 2886.5,1976.5C 2870.47,1993.53 2853.8,2009.86 2836.5,2025.5C 2755.17,2025.5 2673.83,2025.5 2592.5,2025.5C 2603.93,2008.95 2615.6,1992.62 2627.5,1976.5 Z"/></g>
<g><path style="opacity:0.996" fill="#616060" d="M 1891.5,2001.5 C 1942.46,2068.22 1998.8,2130.55 2060.5,2188.5C 2060.5,2312.5 2060.5,2436.5 2060.5,2560.5C 2051.01,2567.75 2041.68,2575.25 2032.5,2583C 2031.55,2583.48 2030.55,2583.65 2029.5,2583.5C 1978.55,2519.61 1932.55,2452.27 1891.5,2381.5C 1891.5,2254.83 1891.5,2128.17 1891.5,2001.5 Z"/></g>
<g><path style="opacity:0.994" fill="#e1d9ab" d="M 2592.5,2025.5 C 2673.83,2025.5 2755.17,2025.5 2836.5,2025.5C 2819.8,2042.54 2802.46,2058.87 2784.5,2074.5C 2708.17,2074.5 2631.83,2074.5 2555.5,2074.5C 2568.09,2058.31 2580.42,2041.97 2592.5,2025.5 Z"/></g>
<g><path style="opacity:0.993" fill="#dfd9ad" d="M 2555.5,2074.5 C 2631.83,2074.5 2708.17,2074.5 2784.5,2074.5C 2763.96,2094.76 2742.63,2114.09 2720.5,2132.5C 2649.83,2132.5 2579.17,2132.5 2508.5,2132.5C 2524.2,2113.14 2539.86,2093.81 2555.5,2074.5 Z"/></g>
<g><path style="opacity:0.967" fill="#8a8a89" d="M 3355.5,2220.5 C 3355.5,2200.17 3355.5,2179.83 3355.5,2159.5C 3384.16,2136.35 3411.83,2111.85 3438.5,2086C 3439.33,2085.31 3440,2085.48 3440.5,2086.5C 3413.14,2131.91 3384.81,2176.57 3355.5,2220.5 Z"/></g>
<g><path style="opacity:0.991" fill="#ddd8b1" d="M 2508.5,2132.5 C 2579.17,2132.5 2649.83,2132.5 2720.5,2132.5C 2647.56,2196.78 2572.56,2258.45 2495.5,2317.5C 2442.5,2317.5 2389.5,2317.5 2336.5,2317.5C 2396.8,2258.21 2454.13,2196.55 2508.5,2132.5 Z"/></g>
<g><path style="opacity:0.988" fill="#868685" d="M 3355.5,2159.5 C 3355.5,2179.83 3355.5,2200.17 3355.5,2220.5C 3303.06,2301.6 3246.39,2379.6 3185.5,2454.5C 3185.5,2395.5 3185.5,2336.5 3185.5,2277.5C 3244.63,2241.71 3301.29,2202.37 3355.5,2159.5 Z"/></g>
<g><path style="opacity:0.998" fill="#646363" d="M 2060.5,2188.5 C 2069.44,2195.14 2077.77,2202.47 2085.5,2210.5C 2085.5,2320.17 2085.5,2429.83 2085.5,2539.5C 2077.48,2546.85 2069.15,2553.85 2060.5,2560.5C 2060.5,2436.5 2060.5,2312.5 2060.5,2188.5 Z"/></g>
<g><path style="opacity:0.998" fill="#646463" d="M 2085.5,2210.5 C 2089.46,2212.79 2092.79,2215.79 2095.5,2219.5C 2095.5,2323.5 2095.5,2427.5 2095.5,2531.5C 2092.54,2534.64 2089.21,2537.31 2085.5,2539.5C 2085.5,2429.83 2085.5,2320.17 2085.5,2210.5 Z"/></g>
<g><path style="opacity:0.996" fill="#666565" d="M 2095.5,2219.5 C 2145.14,2260.5 2197.8,2297.33 2253.5,2330C 2268.21,2338.36 2283.21,2346.19 2298.5,2353.5C 2291.81,2360.86 2284.81,2367.86 2277.5,2374.5C 2241.11,2407.57 2204.44,2440.23 2167.5,2472.5C 2148.48,2488.53 2129.48,2504.53 2110.5,2520.5C 2105.65,2524.42 2100.65,2528.09 2095.5,2531.5C 2095.5,2427.5 2095.5,2323.5 2095.5,2219.5 Z"/></g>
<g><path style="opacity:0.992" fill="#848383" d="M 3185.5,2277.5 C 3185.5,2336.5 3185.5,2395.5 3185.5,2454.5C 3174.55,2469.39 3162.88,2483.73 3150.5,2497.5C 3150.5,2430.83 3150.5,2364.17 3150.5,2297.5C 3162,2290.58 3173.66,2283.92 3185.5,2277.5 Z"/></g>
<g><path style="opacity:0.995" fill="#80807f" d="M 3150.5,2297.5 C 3150.5,2364.17 3150.5,2430.83 3150.5,2497.5C 3088.53,2571.8 3020.53,2640.13 2946.5,2702.5C 2946.5,2597.5 2946.5,2492.5 2946.5,2387.5C 3017.18,2363.49 3085.18,2333.49 3150.5,2297.5 Z"/></g>
<g><path style="opacity:0.991" fill="#dbd6b6" d="M 2336.5,2317.5 C 2389.5,2317.5 2442.5,2317.5 2495.5,2317.5C 2470.41,2337.55 2444.74,2356.88 2418.5,2375.5C 2371.33,2375.83 2324.33,2375.5 2277.5,2374.5C 2284.81,2367.86 2291.81,2360.86 2298.5,2353.5C 2311.47,2341.87 2324.14,2329.87 2336.5,2317.5 Z"/></g>
<g><path style="opacity:0.999" fill="#d9d5b9" d="M 2277.5,2374.5 C 2324.33,2375.5 2371.33,2375.83 2418.5,2375.5C 2410.83,2381.5 2403.17,2387.5 2395.5,2393.5C 2374.22,2408.12 2353.22,2423.12 2332.5,2438.5C 2328.1,2441.03 2324.1,2444.03 2320.5,2447.5C 2312.81,2452.01 2305.48,2457.01 2298.5,2462.5C 2293.08,2466.59 2287.42,2470.25 2281.5,2473.5C 2243.33,2473.83 2205.33,2473.5 2167.5,2472.5C 2204.44,2440.23 2241.11,2407.57 2277.5,2374.5 Z"/></g>
<g><path style="opacity:0.996" fill="#7c7d7b" d="M 2946.5,2387.5 C 2946.5,2492.5 2946.5,2597.5 2946.5,2702.5C 2938.39,2709.4 2930.06,2716.06 2921.5,2722.5C 2921.5,2613.5 2921.5,2504.5 2921.5,2395.5C 2929.85,2392.83 2938.18,2390.16 2946.5,2387.5 Z"/></g>
<g><path style="opacity:0.998" fill="#6e6d6d" d="M 2395.5,2393.5 C 2431.03,2406.13 2467.36,2416.13 2504.5,2423.5C 2504.5,2575.17 2504.5,2726.83 2504.5,2878.5C 2444.87,2875.01 2387.87,2861.01 2333.5,2836.5C 2333.83,2703.67 2333.5,2571 2332.5,2438.5C 2353.22,2423.12 2374.22,2408.12 2395.5,2393.5 Z"/></g>
<g><path style="opacity:0.996" fill="#7c7c7b" d="M 2921.5,2395.5 C 2921.5,2504.5 2921.5,2613.5 2921.5,2722.5C 2918.81,2725.18 2915.81,2727.52 2912.5,2729.5C 2912.5,2619.17 2912.5,2508.83 2912.5,2398.5C 2915.42,2397.3 2918.42,2396.3 2921.5,2395.5 Z"/></g>
<g><path style="opacity:0.997" fill="#797978" d="M 2912.5,2398.5 C 2912.5,2508.83 2912.5,2619.17 2912.5,2729.5C 2860.25,2770.32 2803.59,2804.32 2742.5,2831.5C 2742.5,2698.5 2742.5,2565.5 2742.5,2432.5C 2800.23,2426.42 2856.9,2415.09 2912.5,2398.5 Z"/></g>
<g><path style="opacity:0.998" fill="#70706f" d="M 2504.5,2423.5 C 2509.95,2424.07 2515.28,2425.07 2520.5,2426.5C 2520.5,2577.5 2520.5,2728.5 2520.5,2879.5C 2515.19,2878.9 2509.85,2878.57 2504.5,2878.5C 2504.5,2726.83 2504.5,2575.17 2504.5,2423.5 Z"/></g>
<g><path style="opacity:0.997" fill="#70716f" d="M 2520.5,2426.5 C 2526.72,2426.96 2532.72,2427.96 2538.5,2429.5C 2538.5,2579.5 2538.5,2729.5 2538.5,2879.5C 2532.5,2879.5 2526.5,2879.5 2520.5,2879.5C 2520.5,2728.5 2520.5,2577.5 2520.5,2426.5 Z"/></g>
<g><path style="opacity:0.998" fill="#737372" d="M 2538.5,2429.5 C 2594.97,2437.14 2651.64,2439.14 2708.5,2435.5C 2708.5,2572.17 2708.5,2708.83 2708.5,2845.5C 2653.78,2866.35 2597.11,2877.68 2538.5,2879.5C 2538.5,2729.5 2538.5,2579.5 2538.5,2429.5 Z"/></g>
<g><path style="opacity:0.998" fill="#767775" d="M 2742.5,2432.5 C 2742.5,2565.5 2742.5,2698.5 2742.5,2831.5C 2735.82,2835.07 2728.82,2838.07 2721.5,2840.5C 2721.5,2705.17 2721.5,2569.83 2721.5,2434.5C 2728.53,2434.07 2735.53,2433.41 2742.5,2432.5 Z"/></g>
<g><path style="opacity:0.998" fill="#767675" d="M 2721.5,2434.5 C 2721.5,2569.83 2721.5,2705.17 2721.5,2840.5C 2717.28,2842.44 2712.95,2844.11 2708.5,2845.5C 2708.5,2708.83 2708.5,2572.17 2708.5,2435.5C 2712.86,2435.41 2717.19,2435.08 2721.5,2434.5 Z"/></g>
<g><path style="opacity:0.999" fill="#6b6b6a" d="M 2332.5,2438.5 C 2333.5,2571 2333.83,2703.67 2333.5,2836.5C 2329.05,2834.77 2324.71,2832.77 2320.5,2830.5C 2320.5,2702.83 2320.5,2575.17 2320.5,2447.5C 2324.1,2444.03 2328.1,2441.03 2332.5,2438.5 Z"/></g>
<g><path style="opacity:0.999" fill="#6b6a6a" d="M 2320.5,2447.5 C 2320.5,2575.17 2320.5,2702.83 2320.5,2830.5C 2313.31,2827.07 2306.31,2823.41 2299.5,2819.5C 2299.83,2700.33 2299.5,2581.33 2298.5,2462.5C 2305.48,2457.01 2312.81,2452.01 2320.5,2447.5 Z"/></g>
<g><path style="opacity:0.997" fill="#686767" d="M 2298.5,2462.5 C 2299.5,2581.33 2299.83,2700.33 2299.5,2819.5C 2251.91,2794.54 2207.91,2764.37 2167.5,2729C 2142.01,2707.01 2118.01,2683.51 2095.5,2658.5C 2095.83,2639.33 2095.5,2620.33 2094.5,2601.5C 2134.11,2575.22 2173.44,2548.56 2212.5,2521.5C 2236.06,2506.27 2259.06,2490.27 2281.5,2473.5C 2287.42,2470.25 2293.08,2466.59 2298.5,2462.5 Z"/></g>
<g><path style="opacity:1" fill="#d7d4bc" d="M 2167.5,2472.5 C 2205.33,2473.5 2243.33,2473.83 2281.5,2473.5C 2259.06,2490.27 2236.06,2506.27 2212.5,2521.5C 2178.33,2521.83 2144.33,2521.5 2110.5,2520.5C 2129.48,2504.53 2148.48,2488.53 2167.5,2472.5 Z"/></g>
<g><path style="opacity:0.995" fill="#d6d3bf" d="M 2110.5,2520.5 C 2144.33,2521.5 2178.33,2521.83 2212.5,2521.5C 2173.44,2548.56 2134.11,2575.22 2094.5,2601.5C 2083.45,2608.02 2072.79,2615.02 2062.5,2622.5C 2059.43,2624.9 2056.1,2626.9 2052.5,2628.5C 2025.83,2628.5 1999.17,2628.5 1972.5,2628.5C 1991.79,2613.88 2010.79,2598.88 2029.5,2583.5C 2030.55,2583.65 2031.55,2583.48 2032.5,2583C 2041.68,2575.25 2051.01,2567.75 2060.5,2560.5C 2069.15,2553.85 2077.48,2546.85 2085.5,2539.5C 2089.21,2537.31 2092.54,2534.64 2095.5,2531.5C 2100.65,2528.09 2105.65,2524.42 2110.5,2520.5 Z"/></g>
<g><path style="opacity:0.962" fill="#646363" d="M 2094.5,2601.5 C 2095.5,2620.33 2095.83,2639.33 2095.5,2658.5C 2083.79,2647.13 2072.79,2635.13 2062.5,2622.5C 2072.79,2615.02 2083.45,2608.02 2094.5,2601.5 Z"/></g>
<g><path style="opacity:0.976" fill="#d5d2c2" d="M 1972.5,2628.5 C 1999.17,2628.5 2025.83,2628.5 2052.5,2628.5C 2022.02,2648.91 1991.02,2668.58 1959.5,2687.5C 1937.5,2687.5 1915.5,2687.5 1893.5,2687.5C 1919.97,2668.09 1946.31,2648.42 1972.5,2628.5 Z"/></g>
<g><path style="opacity:0.967" fill="#d3d1c5" d="M 1893.5,2687.5 C 1915.5,2687.5 1937.5,2687.5 1959.5,2687.5C 1907.34,2721.09 1854.34,2753.42 1800.5,2784.5C 1785.83,2784.5 1771.17,2784.5 1756.5,2784.5C 1802.3,2752.42 1847.97,2720.09 1893.5,2687.5 Z"/></g>
<g><path style="opacity:0.992" fill="#cecfce" d="M 1212.5,2720.5 C 1266.78,2719.37 1304.95,2743.37 1327,2792.5C 1342.68,2841.61 1331.85,2883.78 1294.5,2919C 1262.76,2943.55 1227.43,2950.55 1188.5,2940C 1145,2924.5 1119.16,2894 1111,2848.5C 1106.16,2799.02 1124.66,2761.18 1166.5,2735C 1181.04,2727.21 1196.37,2722.37 1212.5,2720.5 Z"/></g>
<g><path style="opacity:0.927" fill="#d1d0ca" d="M 1756.5,2784.5 C 1771.17,2784.5 1785.83,2784.5 1800.5,2784.5C 1690.6,2850.72 1578.76,2914.05 1465,2974.5C 1464.38,2973.55 1464.55,2972.72 1465.5,2972C 1564.26,2911.97 1661.26,2849.47 1756.5,2784.5 Z"/></g>
<g><path style="opacity:0.993" fill="#f1f2f1" d="M 3149.5,3463.5 C 3213.65,3459.88 3275.98,3468.71 3336.5,3490C 3351.8,3495.93 3366.47,3503.1 3380.5,3511.5C 3380.83,3512.17 3381.17,3512.83 3381.5,3513.5C 3367.63,3548.61 3353.46,3583.61 3339,3618.5C 3337.55,3622.54 3335.55,3626.21 3333,3629.5C 3275.44,3596.32 3213.6,3582.82 3147.5,3589C 3128.18,3591.08 3111.68,3598.91 3098,3612.5C 3084.2,3633.81 3087.7,3651.65 3108.5,3666C 3119.35,3671.84 3130.68,3676.51 3142.5,3680C 3171.72,3687.18 3201.05,3693.84 3230.5,3700C 3269.39,3707.96 3306.05,3721.63 3340.5,3741C 3390.34,3773.52 3412.17,3819.69 3406,3879.5C 3398.21,3937.59 3368.71,3980.75 3317.5,4009C 3277.77,4029.85 3235.44,4041.18 3190.5,4043C 3104.8,4048.66 3023.14,4033.33 2945.5,3997C 2937.67,3992.58 2930,3987.92 2922.5,3983C 2939.76,3943.64 2957.43,3904.47 2975.5,3865.5C 3036.12,3903.09 3102.12,3921.26 3173.5,3920C 3187.42,3919.68 3201.09,3917.68 3214.5,3914C 3229.22,3910.27 3240.05,3901.77 3247,3888.5C 3252.73,3872.26 3248.9,3858.76 3235.5,3848C 3220.5,3839 3204.5,3832.33 3187.5,3828C 3162.98,3821.7 3138.31,3816.03 3113.5,3811C 3083.26,3804.44 3053.93,3795.11 3025.5,3783C 2949.49,3746.48 2920.33,3686.65 2938,3603.5C 2951.37,3555.8 2979.87,3520.3 3023.5,3497C 3063.19,3476.75 3105.19,3465.58 3149.5,3463.5 Z"/></g>
<g><path style="opacity:0.993" fill="#f1f2f1" d="M 3926.5,3463.5 C 3979.71,3459.94 4031.38,3467.11 4081.5,3485C 4126.73,3502.61 4164.4,3530.45 4194.5,3568.5C 4160.88,3598.95 4127.38,3629.62 4094,3660.5C 4043.29,3600.49 3980.12,3581.66 3904.5,3604C 3855.2,3623.31 3824.36,3658.81 3812,3710.5C 3800.24,3762.89 3809.24,3811.22 3839,3855.5C 3861.23,3884.38 3890.4,3902.21 3926.5,3909C 3979.89,3919.16 4027.22,3906.82 4068.5,3872C 4077.04,3863.63 4085.38,3855.13 4093.5,3846.5C 4127.15,3876.31 4160.65,3906.31 4194,3936.5C 4193.96,3938.28 4193.29,3939.95 4192,3941.5C 4142.91,3999.14 4080.41,4032.31 4004.5,4041C 3929.16,4051.24 3857.82,4038.91 3790.5,4004C 3705.01,3953.73 3657.51,3878.9 3648,3779.5C 3640.37,3685.01 3670.54,3605.18 3738.5,3540C 3792.7,3494.09 3855.37,3468.59 3926.5,3463.5 Z"/></g>
<g><path style="opacity:0.994" fill="#f1f2f1" d="M 304.5,3474.5 C 398.167,3474.33 491.834,3474.5 585.5,3475C 637.32,3476.61 684.987,3491.28 728.5,3519C 782.13,3559.1 808.463,3612.93 807.5,3680.5C 807.888,3762.11 771.888,3821.11 699.5,3857.5C 739.167,3915.5 778.833,3973.5 818.5,4031.5C 761.836,4032.67 705.17,4032.83 648.5,4032C 614.971,3983.3 581.638,3934.47 548.5,3885.5C 520.175,3884.5 491.841,3884.17 463.5,3884.5C 463.5,3933.83 463.5,3983.17 463.5,4032.5C 410.5,4032.5 357.5,4032.5 304.5,4032.5C 304.5,3846.5 304.5,3660.5 304.5,3474.5 Z M 463.5,3599.5 C 496.835,3599.33 530.168,3599.5 563.5,3600C 588.79,3600.64 610.623,3609.48 629,3626.5C 642.109,3641.98 648.609,3659.98 648.5,3680.5C 647.606,3722.22 626.939,3748.05 586.5,3758C 580.218,3759.32 573.885,3760.32 567.5,3761C 532.835,3761.5 498.168,3761.67 463.5,3761.5C 463.5,3707.5 463.5,3653.5 463.5,3599.5 Z"/></g>
<g><path style="opacity:0.996" fill="#f1f2f1" d="M 858.5,3474.5 C 1056.83,3474.5 1255.17,3474.5 1453.5,3474.5C 1503.37,3595.25 1553.54,3715.92 1604,3836.5C 1655.5,3715.98 1707,3595.48 1758.5,3475C 1955.5,3474.5 2152.5,3474.33 2349.5,3474.5C 2349.5,3515.5 2349.5,3556.5 2349.5,3597.5C 2255.83,3597.5 2162.17,3597.5 2068.5,3597.5C 2068.5,3628.5 2068.5,3659.5 2068.5,3690.5C 2151.17,3690.5 2233.83,3690.5 2316.5,3690.5C 2316.5,3729.83 2316.5,3769.17 2316.5,3808.5C 2233.83,3808.5 2151.17,3808.5 2068.5,3808.5C 2068.5,3842.17 2068.5,3875.83 2068.5,3909.5C 2165.83,3909.5 2263.17,3909.5 2360.5,3909.5C 2360.5,3950.5 2360.5,3991.5 2360.5,4032.5C 2211.17,4032.5 2061.83,4032.5 1912.5,4032.5C 1912.67,3849.5 1912.5,3666.5 1912,3483.5C 1833.67,3666.17 1755.33,3848.83 1677,4031.5C 1624.57,4032.5 1572.07,4032.83 1519.5,4032.5C 1445.5,3857.33 1371,3682.33 1296,3507.5C 1295.5,3537.5 1295.33,3567.5 1295.5,3597.5C 1201.83,3597.5 1108.17,3597.5 1014.5,3597.5C 1014.5,3628.5 1014.5,3659.5 1014.5,3690.5C 1097.17,3690.5 1179.83,3690.5 1262.5,3690.5C 1262.5,3729.83 1262.5,3769.17 1262.5,3808.5C 1179.83,3808.5 1097.17,3808.5 1014.5,3808.5C 1014.5,3842.17 1014.5,3875.83 1014.5,3909.5C 1111.83,3909.5 1209.17,3909.5 1306.5,3909.5C 1306.5,3950.5 1306.5,3991.5 1306.5,4032.5C 1157.17,4032.5 1007.83,4032.5 858.5,4032.5C 858.5,3846.5 858.5,3660.5 858.5,3474.5 Z"/></g>
<g><path style="opacity:0.994" fill="#f1f2f1" d="M 2411.5,3474.5 C 2505.17,3474.33 2598.83,3474.5 2692.5,3475C 2739.54,3476.76 2783.54,3489.09 2824.5,3512C 2880.1,3547.32 2909.93,3598.15 2914,3664.5C 2919.1,3763.53 2875.94,3831.37 2784.5,3868C 2756.33,3877.97 2727.33,3883.97 2697.5,3886C 2655.18,3887.34 2612.85,3887.84 2570.5,3887.5C 2570.5,3935.83 2570.5,3984.17 2570.5,4032.5C 2517.5,4032.5 2464.5,4032.5 2411.5,4032.5C 2411.5,3846.5 2411.5,3660.5 2411.5,3474.5 Z M 2570.5,3599.5 C 2603.83,3599.33 2637.17,3599.5 2670.5,3600C 2732.53,3605.35 2760.03,3638.85 2753,3700.5C 2745.35,3731.48 2725.85,3750.31 2694.5,3757C 2688.56,3758.39 2682.56,3759.39 2676.5,3760C 2641.17,3760.5 2605.83,3760.67 2570.5,3760.5C 2570.5,3706.83 2570.5,3653.17 2570.5,3599.5 Z"/></g>
<g><path style="opacity:0.994" fill="#f1f2f1" d="M 3442.5,3474.5 C 3495.5,3474.5 3548.5,3474.5 3601.5,3474.5C 3601.5,3660.5 3601.5,3846.5 3601.5,4032.5C 3548.5,4032.5 3495.5,4032.5 3442.5,4032.5C 3442.5,3846.5 3442.5,3660.5 3442.5,3474.5 Z"/></g>
</svg>
