<?xml version="1.0" encoding="utf-8"?>
<!DOCTYPE svg PUBLIC "-//W3C//DTD SVG 1.0//EN" "http://www.w3.org/TR/2001/REC-SVG-20010904/DTD/svg10.dtd">
<svg version="1.0" xmlns="http://www.w3.org/2000/svg" width="4500px" height="1127px" viewBox="0 0 4500 1127" preserveAspectRatio="xMidYMid meet">
 <g fill="#1d1d1b">
  <path d="M1410 861.9 l0 -30.1 15.8 0.4 c14.5 0.3 16 0.5 20 2.8 12.8 7.3 12.5 27.6 -0.4 33.7 -1.9 0.9 -3.4 2 -3.4 2.5 0 0.4 2.4 4.1 5.3 8.1 3 3.9 6.2 8.4 7.1 10 1.8 2.6 1.8 2.7 -0.1 2.7 -1.4 0 -4.3 -3.3 -9.4 -10.5 -4.6 -6.5 -7.9 -10.3 -8.7 -10 -0.8 0.3 -6.1 0.5 -11.8 0.5 l-10.4 0 0 10 c0 9.3 -0.1 10 -2 10 -2 0 -2 -0.7 -2 -30.1z m32.3 4.7 c6.8 -2.9 10.5 -10.9 8.7 -18.9 -2.1 -9.6 -6.7 -12 -24.2 -12.5 l-12.8 -0.4 0 16.6 0 16.6 12.5 0 c8.4 0 13.6 -0.5 15.8 -1.4z"/>
  <path d="M1468 862 l0 -30 20 0 c17.1 0 20 0.2 20 1.5 0 1.3 -2.7 1.5 -18 1.5 l-18 0 0 12 0 12 16 0 c15.3 0 16 0.1 16 2 0 1.9 -0.7 2 -16 2 l-16 0 0 12.5 0 12.5 18.5 0 c17.8 0 18.5 0.1 18.5 2 0 1.9 -0.7 2 -20.5 2 l-20.5 0 0 -30z"/>
  <path d="M1522 862.1 l0 -30.1 15.5 0 c12.9 0 16.3 0.3 20.7 2 6.7 2.5 12.1 6.9 15.5 12.8 3.8 6.4 4.5 19.7 1.5 26.4 -3 6.8 -8.4 12.2 -15.3 15.3 -5.6 2.5 -7.5 2.7 -22 3.2 l-15.9 0.6 0 -30.2z m33.6 24.4 c11 -3.2 17.7 -12.7 17.7 -24.9 0 -11.6 -4.8 -19.4 -14.5 -23.7 -4.5 -2 -7.3 -2.4 -19 -2.7 l-13.8 -0.4 0 26.6 0 26.6 12.3 0 c8 0 14.1 -0.5 17.3 -1.5z"/>
  <path d="M1623.7 889.3 c-1.4 -2.6 -19.6 -43.4 -23.8 -53.1 l-1.9 -4.3 2.2 0.3 c1.8 0.2 4.2 4.9 13.8 26.6 6.5 14.5 12.1 26.4 12.5 26.5 0.4 0.1 6 -11.7 12.5 -26.3 9.4 -21.1 12.3 -26.6 13.9 -26.8 2.3 -0.4 3.8 -4.1 -15.3 38.8 -9.6 21.5 -11.2 23.6 -13.9 18.3z"/>
  <path d="M1662 862 l0 -30 20 0 c17.1 0 20 0.2 20 1.5 0 1.3 -2.7 1.5 -18 1.5 l-18 0 0 12 0 12 16 0 c15.3 0 16 0.1 16 2 0 1.9 -0.7 2 -16 2 l-16 0 0 12.5 0 12.5 18.5 0 c17.8 0 18.5 0.1 18.5 2 0 1.9 -0.7 2 -20.5 2 l-20.5 0 0 -30z"/>
  <path d="M1715 862 c0 -29.1 0.1 -30 2 -30 1.3 0 8 7.8 22.2 25.9 l20.3 26 0.3 -26 c0.2 -25.1 0.3 -25.9 2.2 -25.9 2 0 2 0.8 2 30 0 24.4 -0.3 30 -1.3 30 -0.8 0 -10.6 -11.7 -21.8 -26 -11.2 -14.3 -20.7 -26 -21.1 -26 -0.5 0 -0.8 11.7 -0.8 26 0 25.3 -0.1 26 -2 26 -2 0 -2 -0.7 -2 -30z"/>
  <path d="M1782 862 l0 -30 20 0 c17.1 0 20 0.2 20 1.5 0 1.3 -2.7 1.5 -18 1.5 l-18 0 0 12 0 12 16 0 c15.3 0 16 0.1 16 2 0 1.9 -0.7 2 -16 2 l-16 0 0 12.5 0 12.5 18.5 0 c17.8 0 18.5 0.1 18.5 2 0 1.9 -0.7 2 -20.5 2 l-20.5 0 0 -30z"/>
  <path d="M1829 890.5 c0 -0.9 9.2 -13.4 20.5 -27.8 11.3 -14.4 20.5 -26.5 20.5 -26.9 0 -0.5 -9 -0.8 -20 -0.8 -17.1 0 -20 -0.2 -20 -1.5 0 -1.3 3.2 -1.5 23 -1.5 17.9 0 23 0.3 23 1.3 0 0.7 -9.2 13 -20.5 27.5 -11.3 14.4 -20.5 26.4 -20.5 26.7 0 0.3 9.5 0.5 21 0.5 20.3 0 21 0.1 21 2 0 1.9 -0.7 2 -24 2 -20.9 0 -24 -0.2 -24 -1.5z"/>
  <path d="M1902.2 890.6 c-8.2 -2.7 -14.1 -7.6 -18 -15.1 -2.3 -4.3 -2.7 -6.2 -2.7 -14 0 -8.2 0.3 -9.5 3.1 -14.5 12.1 -21.6 44.6 -20.5 55.6 1.9 3.2 6.4 3.2 18.5 0.1 25.2 -2.7 6 -8.6 11.9 -14.8 14.8 -6.1 2.9 -17.2 3.7 -23.3 1.7z m19.9 -4 c5.6 -2 10.3 -6.1 13.5 -11.8 2.5 -4.6 2.9 -6.3 2.9 -13.3 0 -6.2 -0.5 -8.9 -2.2 -12 -4.8 -9 -13.7 -14.4 -23.9 -14.5 -16.6 0 -27.4 10.4 -27.4 26.4 0.1 16.1 10.6 26.7 26.4 26.6 3.9 -0.1 8.7 -0.7 10.7 -1.4z"/>
  <path d="M1955 862 c0 -29.3 0 -30 2 -30 2 0 2 0.7 2 28 l0 28 17.2 -0.2 17.2 -0.3 12.6 -27.5 c11.3 -24.5 12.9 -27.5 15 -27.5 2.1 0 3.8 3.2 15.7 28.9 7.3 15.9 13.3 29.3 13.3 29.8 0 0.4 -0.8 0.8 -1.7 0.8 -1.3 0 -2.9 -2.5 -5.4 -8.3 l-3.7 -8.2 -18.2 0 -18.2 0 -3.7 8.2 -3.6 8.3 -20.2 0 -20.3 0 0 -30z m81.7 8.3 c-0.2 -0.5 -3.7 -8.1 -7.7 -17 -4 -9 -7.6 -16.3 -8 -16.3 -0.4 0 -4 7.3 -8 16.3 -4 8.9 -7.5 16.5 -7.7 17 -0.2 0.4 6.8 0.7 15.7 0.7 8.9 0 15.9 -0.3 15.7 -0.7z"/>
  <path d="M2058 862 c0 -28.6 0.1 -30 1.9 -30 1.2 0 8.5 8.5 22.2 26 l20.4 26 0.3 -26 c0.2 -25.2 0.3 -26 2.2 -26 2 0 2 0.8 2 30 0 25.1 -0.2 30 -1.4 30 -0.8 0 -10.5 -11.6 -21.6 -25.7 -11.1 -14.2 -20.6 -25.9 -21.1 -26.1 -0.5 -0.2 -0.9 10.7 -0.9 25.7 0 25.4 -0.1 26.1 -2 26.1 -2 0 -2 -0.7 -2 -30z"/>
  <path d="M2115 891.3 c0.1 -0.5 6.1 -13.8 13.4 -29.8 11.7 -25.2 13.7 -29 15.8 -29.3 2.1 -0.2 3.1 1.6 11.7 20.5 5.2 11.5 11.4 25 13.7 30.1 4 8.5 4.2 9.2 2.3 9.2 -1.5 0 -2.9 -1.9 -5.9 -8.5 l-3.9 -8.5 -17.9 0 -18 0 -3.8 8.5 c-2.7 6.1 -4.3 8.5 -5.6 8.5 -1 0 -1.8 -0.3 -1.8 -0.7z m44.8 -21.2 c-2.8 -7.4 -15.5 -33.8 -16 -33.3 -0.4 0.4 -3.9 7.9 -7.8 16.7 -4 8.8 -7.4 16.3 -7.7 16.8 -0.2 0.4 6.8 0.7 15.7 0.7 9 0 16 -0.4 15.8 -0.9z"/>
  <path d="M2200 862 l0 -30 13.8 0 c16.5 0 21.4 1.3 26.6 7 8.3 9.2 5.2 24.6 -6.1 30.1 -4.1 2 -6.7 2.4 -17.5 2.7 l-12.8 0.4 0 9.9 c0 9.2 -0.1 9.9 -2 9.9 -2 0 -2 -0.7 -2 -30z m33 3.8 c10.9 -5.7 10.9 -21.8 0 -28.2 -2.9 -1.8 -5.6 -2.2 -16.2 -2.5 l-12.8 -0.3 0 16.6 0 16.6 12.3 0 c10.8 0 12.8 -0.3 16.7 -2.2z"/>
  <path d="M2244 891.3 c0.1 -0.5 6.1 -13.8 13.5 -29.8 11.5 -25.1 13.7 -29 15.7 -29.3 2.1 -0.2 3.2 1.7 11.7 20.5 5.2 11.5 11.4 25 13.7 30.1 4 8.5 4.2 9.2 2.3 9.2 -1.5 0 -2.9 -1.9 -5.9 -8.5 l-3.9 -8.5 -17.9 0 -18 0 -3.8 8.5 c-2.7 6.1 -4.3 8.5 -5.6 8.5 -1 0 -1.8 -0.3 -1.8 -0.7z m44.8 -21.2 c-2.7 -7.2 -15.5 -33.8 -15.9 -33.3 -0.4 0.4 -4 7.9 -7.9 16.7 -4 8.8 -7.4 16.3 -7.7 16.8 -0.2 0.4 6.8 0.7 15.7 0.7 9 0 16 -0.4 15.8 -0.9z"/>
  <path d="M2310 862 l0 -30 14.8 0 c13.3 0 15.2 0.2 19.7 2.4 5.8 2.7 7.8 4.7 10 9.9 3.8 9.2 -0.8 21.1 -9.6 24.7 -1.6 0.7 -2.9 1.5 -2.9 1.8 0 0.2 3.2 4.9 7 10.3 3.9 5.4 7 10 7 10.3 0 0.3 -0.8 0.6 -1.7 0.6 -1.1 0 -4.7 -4.1 -9.2 -10.6 -5 -6.9 -7.9 -10.3 -8.9 -9.9 -0.7 0.3 -6.1 0.5 -11.8 0.5 l-10.4 0 0 10 c0 9.3 -0.1 10 -2 10 -2 0 -2 -0.7 -2 -30z m33.6 3.9 c8 -3.8 11 -16.6 5.7 -23.7 -4.1 -5.5 -7.6 -6.6 -22 -7 l-13.3 -0.4 0 16.6 0 16.6 12.7 0 c10.7 0 13.3 -0.3 16.9 -2.1z"/>
  <path d="M2359 891.5 c0 -0.2 6.1 -13.6 13.5 -29.7 11.5 -25.2 13.7 -29.3 15.7 -29.6 2.1 -0.2 3.3 1.9 12.7 22.5 5.7 12.6 11.9 26.1 13.7 30.1 3.1 6.7 3.2 7.2 1.4 7.2 -1.5 0 -2.9 -2 -5.9 -8.5 l-4 -8.5 -17.9 0 -17.9 0 -3.8 8.5 c-2.8 6.2 -4.3 8.5 -5.7 8.5 -1 0 -1.8 -0.2 -1.8 -0.5z m45 -20.9 c0 -1.4 -14.9 -33.1 -15.7 -33.3 -0.5 -0.2 -4.3 7.3 -8.5 16.7 l-7.6 17 15.9 0 c8.7 0 15.9 -0.2 15.9 -0.4z"/>
  <path d="M2444 862 l0 -30 20 0 c17.1 0 20 0.2 20 1.5 0 1.3 -2.7 1.5 -18 1.5 l-18 0 0 12 0 12 16 0 c15.3 0 16 0.1 16 2 0 1.9 -0.7 2 -16 2 l-16 0 0 12.5 0 12.5 18.5 0 c17.8 0 18.5 0.1 18.5 2 0 1.9 -0.7 2 -20.5 2 l-20.5 0 0 -30z"/>
  <path d="M2498 862 c0 -26 0.2 -30 1.5 -30 1.3 0 1.5 3.8 1.5 28 l0 28 17.5 0 c16.8 0 17.5 0.1 17.5 2 0 1.9 -0.7 2 -19 2 l-19 0 0 -30z"/>
  <path d="M2553 891.2 c0 -0.4 6 -13.8 13.3 -29.7 11.9 -25.9 13.6 -29 15.7 -29 2.1 0 3.8 3.1 15.7 29 7.3 15.9 13.3 29.3 13.3 29.7 0 0.4 -0.8 0.8 -1.7 0.8 -1.3 0 -2.9 -2.5 -5.4 -8.3 l-3.7 -8.2 -18.2 0 -18.2 0 -3.7 8.2 c-2.5 5.8 -4.1 8.3 -5.3 8.3 -1 0 -1.8 -0.4 -1.8 -0.8z m43.6 -23.4 c-2.6 -6.1 -11.8 -26.3 -13.3 -29.2 l-1.5 -2.8 -7 15.3 c-3.8 8.5 -7.4 16.4 -7.9 17.7 l-0.9 2.2 16 0 16 0 -1.4 -3.2z"/>
  <path d="M2620.7 863.8 c-15.5 -34.9 -14.3 -31.8 -12 -31.8 1.6 0 4.2 5 13.9 27 6.5 14.8 12.1 27 12.4 27 0.3 0 6 -12.1 12.5 -27 9.5 -21.3 12.4 -27 13.9 -27 2.2 0 3.4 -3 -12.1 31.8 -9.6 21.5 -13 28.2 -14.3 28.2 -1.3 0 -4.7 -6.7 -14.3 -28.2z"/>
  <path d="M2659 891.2 c0 -0.4 6 -13.8 13.3 -29.7 11.9 -25.8 13.6 -29 15.7 -29 2.1 0 3.8 3.2 15.7 29 7.3 15.9 13.3 29.3 13.3 29.7 0 0.4 -0.8 0.8 -1.7 0.8 -1.3 0 -2.9 -2.5 -5.4 -8.3 l-3.7 -8.2 -18.2 0 -18.2 0 -3.7 8.2 c-2.5 5.8 -4.1 8.3 -5.3 8.3 -1 0 -1.8 -0.3 -1.8 -0.8z m43.6 -23.4 c-2.6 -6.1 -11.8 -26.3 -13.3 -29.2 l-1.5 -2.8 -7 15.3 c-3.8 8.5 -7.4 16.4 -7.9 17.7 l-0.9 2.2 16 0 16 0 -1.4 -3.2z"/>
  <path d="M2725 862 c0 -28.6 0.1 -30 1.9 -30 1.2 0 8.6 8.6 22.2 26 l20.4 26 0.3 -26 c0.2 -25.2 0.3 -26 2.2 -26 2 0 2 0.8 2 30 0 25.5 -0.2 30 -1.4 30 -0.8 0 -10.6 -11.6 -21.6 -25.7 -11.1 -14.2 -20.6 -25.9 -21.1 -26.1 -0.5 -0.2 -0.9 10.7 -0.9 25.7 0 25.4 -0.1 26.1 -2 26.1 -2 0 -2 -0.7 -2 -30z"/>
  <path d="M2807.2 890.6 c-8.2 -2.7 -14.1 -7.6 -18 -15.1 -2.3 -4.3 -2.7 -6.2 -2.7 -14 0 -8.1 0.3 -9.5 3 -14.4 8.5 -15.4 29 -20.5 44 -11 3.8 2.4 4.5 3.2 3.5 4.4 -1 1.2 -1.7 1.1 -4.4 -0.9 -4.3 -3.2 -8.9 -4.6 -15.6 -4.6 -16.1 0 -27 10.7 -27 26.5 0 11.5 5.3 20 15.5 24.6 8.2 3.8 24 1.8 28.4 -3.5 1 -1.2 1.7 -1.4 2.7 -0.5 2 1.6 0.3 3.4 -5.9 6.6 -6.2 3.1 -17.1 4 -23.5 1.9z"/>
  <path d="M2849 862 l0 -30 20 0 c17.1 0 20 0.2 20 1.5 0 1.3 -2.7 1.5 -18 1.5 l-18 0 0 12 0 12 16 0 c15.3 0 16 0.1 16 2 0 1.9 -0.7 2 -16 2 l-16 0 0 12.5 0 12.5 19 0 c18.3 0 19 0.1 19 2 0 1.9 -0.7 2 -21 2 l-21 0 0 -30z"/>
  <path d="M2940 861.9 l0 -30.1 16.8 0.4 c18.9 0.4 22.8 1.4 29.5 8.2 6.5 6.4 8.2 10.9 8.2 21.1 0 7.3 -0.4 9.8 -2.2 13.1 -7.1 13.3 -16.7 17.3 -41.5 17.4 l-10.8 0 0 -30.1z m32.2 25.1 c6.5 -1.8 13 -7 16 -12.9 2.3 -4.3 2.8 -6.6 2.8 -12 -0.1 -11.7 -4.5 -19.2 -13.8 -23.8 -5.2 -2.6 -6.8 -2.8 -19.4 -3.1 l-13.8 -0.4 0 26.6 0 26.6 12.3 0 c6.7 0 13.9 -0.5 15.9 -1z"/>
  <path d="M3007 862 l0 -30 20 0 c17.1 0 20 0.2 20 1.5 0 1.3 -2.7 1.5 -18 1.5 l-18 0 0 12 0 12 16 0 c15.3 0 16 0.1 16 2 0 1.9 -0.7 2 -16 2 l-16 0 0 12.5 0 12.5 18.5 0 c17.8 0 18.5 0.1 18.5 2 0 1.9 -0.7 2 -20.5 2 l-20.5 0 0 -30z"/>
  <path d="M3079 862 c0 -29.3 0 -30 2 -30 2 0 2 0.7 2 28 l0 28 17.3 0 17.2 0 12.7 -27.8 c10.9 -23.9 13 -27.7 15 -28 2.1 -0.2 3.2 1.7 11.7 20.5 5.2 11.5 11.4 25 13.7 30.1 4 8.5 4.2 9.2 2.3 9.2 -1.5 0 -2.9 -1.9 -5.9 -8.5 l-3.9 -8.5 -17.9 0 -18 0 -3.8 8.5 -3.8 8.5 -20.3 0 -20.3 0 0 -30z m81.8 8.1 c-2.7 -7.2 -15.5 -33.8 -15.9 -33.3 -0.4 0.4 -4 7.9 -7.9 16.7 -4 8.8 -7.4 16.3 -7.7 16.8 -0.2 0.4 6.8 0.7 15.7 0.7 9 0 16 -0.4 15.8 -0.9z"/>
  <path d="M3201 862 l0 -30 13.8 0 c16.5 0 21.4 1.3 26.6 7 8.3 9.2 5.2 24.6 -6.1 30.1 -4.1 2 -6.7 2.4 -17.5 2.7 l-12.8 0.4 0 9.9 c0 9.2 -0.1 9.9 -2 9.9 -2 0 -2 -0.7 -2 -30z m33 3.8 c10.9 -5.5 10.9 -21.8 0 -28.2 -2.9 -1.8 -5.6 -2.2 -16.2 -2.5 l-12.8 -0.3 0 16.6 0 16.6 12.3 0 c10.7 0 12.8 -0.3 16.7 -2.2z"/>
  <path d="M3265 890.6 c-5.7 -1.5 -12 -5.3 -12 -7.2 0 -1.8 2.4 -1.8 4 0 2 2.5 11.1 5 18 4.9 10.7 0 16.5 -4.3 16.5 -12 0 -3.9 -0.5 -4.9 -3.4 -7.3 -2.1 -1.8 -6.3 -3.6 -11.5 -5 -17.2 -4.4 -21.4 -7.4 -22.3 -15.3 -1.6 -14.2 17.3 -22.2 34 -14.4 3.4 1.6 4.4 2.6 3.8 3.5 -0.7 1.1 -1.4 1.1 -4.2 -0.4 -4.3 -2.2 -16.4 -3 -21.2 -1.5 -5.2 1.7 -8.7 6.3 -8.7 11.3 0 5.4 3.8 9.1 11.6 11.3 14.7 4 19.3 5.8 21.8 8.4 3.5 3.7 4.7 8.1 3.4 12.8 -2.7 9.9 -15.9 14.7 -29.8 10.9z"/>
  <path d="M3307 862 c0 -29.3 0 -30 2 -30 2 0 2 0.7 2 30 0 29.3 0 30 -2 30 -2 0 -2 -0.7 -2 -30z"/>
  <path d="M3343.3 890.2 c-6.7 -2.4 -11.8 -6.4 -15.4 -12 -5.4 -8.5 -6.4 -18.1 -2.9 -27.4 2.8 -7.6 7.1 -12.2 14.7 -16 5.8 -2.8 7.7 -3.3 14.3 -3.2 5.6 0 8.8 0.6 12.5 2.2 6.6 3 8.8 5.1 7.4 6.8 -0.9 1.1 -1.7 0.9 -4.3 -1 -4.7 -3.5 -10 -4.9 -17.4 -4.4 -15.1 0.9 -25.2 11.4 -25.2 26.2 0 10.9 4.8 19.1 13.9 23.8 8.7 4.6 23.2 3.6 29.3 -1.9 1 -0.8 2.5 -1.3 3.4 -0.9 1.6 0.6 1.5 0.8 -0.1 2.6 -5.4 5.9 -20.7 8.6 -30.2 5.2z"/>
  <path d="M3401.5 890.7 c-14 -4.7 -21.8 -15.2 -21.8 -29.2 0 -12 6.2 -21.8 17.1 -27.2 4.8 -2.3 7 -2.8 13.7 -2.8 6.7 0 8.9 0.5 13.7 2.8 10.9 5.4 17.1 15.2 17.1 27.2 0.1 16.7 -12.1 29.2 -29.3 30.1 -3.7 0.2 -8.2 -0.2 -10.5 -0.9z m21 -5.1 c5.5 -2.5 10.9 -8 13.3 -13.5 2 -4.7 2 -16.5 0 -21.2 -2.2 -5 -7.4 -10.6 -12.2 -13.2 -3.3 -1.8 -5.8 -2.2 -13.2 -2.2 -8.3 0 -9.4 0.2 -13.9 3 -14.7 9.1 -17.7 28.1 -6.4 41 5 5.6 11.8 8.5 20.4 8.5 5.2 0 8.3 -0.6 12 -2.4z"/>
  <path d="M3454 862 c0 -26 0.2 -30 1.5 -30 1.3 0 1.5 3.8 1.5 28 l0 28 17.5 0 c16.8 0 17.5 0.1 17.5 2 0 1.9 -0.7 2 -19 2 l-19 0 0 -30z"/>
  <path d="M3516.5 891.1 c-9.1 -2.3 -17.1 -8.9 -20.8 -17 -1.7 -3.6 -2.2 -6.4 -2.1 -12.6 0.1 -9.6 1.8 -13.8 8 -20.5 10.1 -10.8 27.3 -12.8 40.3 -4.6 11 7 16 22.6 11.5 35.9 -3.6 10.7 -14.9 18.7 -27.2 19.3 -3.7 0.2 -8 0 -9.7 -0.5z m19 -5 c10.2 -4.6 15.5 -13.1 15.5 -24.6 0 -16.1 -10.8 -26.5 -27.4 -26.5 -10.2 0.1 -19.1 5.5 -23.9 14.5 -1.7 3.1 -2.2 5.8 -2.2 12 0 7 0.4 8.7 2.9 13.3 5.1 9.1 12.3 13 24.1 13.1 4.7 0 8.3 -0.5 11 -1.8z"/>
  <path d="M3583.5 890.7 c-14.1 -4.7 -21.9 -15.2 -21.8 -29.3 0.1 -12.1 6.2 -21.8 17.1 -27 10.4 -5 27.6 -3.1 33.8 3.7 1.6 1.7 1.6 1.9 0 2.5 -1 0.4 -2.5 -0.1 -3.6 -1.1 -3 -2.7 -9 -4.4 -15.6 -4.5 -16.6 -0.1 -27.9 10.7 -27.8 26.5 0.1 16.2 10.8 26.5 27.4 26.5 5.9 0 8.6 -0.5 12 -2.2 l4.5 -2.3 0.3 -10.7 c0.2 -10 0.4 -10.8 2.3 -10.8 1.9 0 1.9 0.6 1.7 11.7 l-0.3 11.7 -5.6 2.9 c-6.7 3.4 -18 4.5 -24.4 2.4z"/>
  <path d="M3630 862 c0 -29.3 0 -30 2 -30 2 0 2 0.7 2 30 0 29.3 0 30 -2 30 -2 0 -2 -0.7 -2 -30z"/>
  <path d="M3642.4 890.3 c0.3 -1 6.4 -14.4 13.5 -29.8 11.4 -24.8 13.2 -28 15.2 -28 2 0 3.2 2 9 14.5 3.7 8 9.8 21.4 13.7 29.8 6.3 13.5 6.8 15.2 5.1 15.2 -1.6 0 -3 -2 -6 -8.5 l-3.9 -8.5 -18.1 0.2 -18 0.3 -3.7 8.3 c-2.7 5.9 -4.2 8.2 -5.5 8.2 -1.3 0 -1.7 -0.5 -1.3 -1.7z m44.6 -19.6 c0 -0.2 -3.6 -8.1 -7.9 -17.6 -6.5 -14.3 -8.1 -17 -8.9 -15.5 -0.9 1.7 -6.3 13.5 -12.8 28.2 l-2.4 5.2 16 0 c8.8 0 16 -0.1 16 -0.3z"/>
  <path d="M3741.3 890.2 c-6.7 -2.4 -11.8 -6.4 -15.4 -12 -5.4 -8.5 -6.4 -18.1 -2.9 -27.4 2.8 -7.6 7.1 -12.2 14.7 -16 5.8 -2.8 7.7 -3.3 14.3 -3.2 5.6 0 8.8 0.6 12.5 2.2 6.6 3 8.8 5.1 7.4 6.8 -0.9 1.1 -1.7 0.9 -4.3 -1 -4.7 -3.5 -10 -4.9 -17.4 -4.4 -15.1 0.9 -25.2 11.4 -25.2 26.2 0 10.9 4.8 19.1 13.9 23.8 8.7 4.6 23.2 3.6 29.3 -1.9 1 -0.8 2.5 -1.3 3.4 -0.9 1.6 0.6 1.5 0.8 -0.1 2.6 -5.4 5.9 -20.7 8.6 -30.2 5.2z"/>
  <path d="M3784 862 c0 -29.3 0 -30 2 -30 2 0 2 0.7 2 30 0 29.3 0 30 -2 30 -2 0 -2 -0.7 -2 -30z"/>
  <path d="M3806 862 l0 -30 20 0 c17.1 0 20 0.2 20 1.5 0 1.3 -2.7 1.5 -18 1.5 l-18 0 0 12 0 12 16 0 c15.3 0 16 0.1 16 2 0 1.9 -0.7 2 -16 2 l-16 0 0 12.5 0 12.5 18.5 0 c17.8 0 18.5 0.1 18.5 2 0 1.9 -0.7 2 -20.5 2 l-20.5 0 0 -30z"/>
  <path d="M3860 862 c0 -27.9 0.1 -30 1.8 -30 1 0.1 9.2 9.7 21.2 25.1 10.7 13.8 20.1 25.5 20.8 26.1 0.9 0.8 1.2 -4.3 1.2 -25.1 0 -22.5 0.2 -26.1 1.5 -26.1 1.3 0 1.5 4 1.5 30 0 23.4 -0.3 30 -1.2 30 -0.7 -0.1 -10.5 -11.9 -21.8 -26.3 l-20.5 -26.2 -0.3 26.3 c-0.2 25.4 -0.3 26.2 -2.2 26.2 -2 0 -2 -0.8 -2 -30z"/>
  <path d="M3938 863.5 l0 -28.5 -11 0 c-9.1 0 -11 -0.3 -11 -1.5 0 -1.3 3.3 -1.5 23.5 -1.5 20.2 0 23.5 0.2 23.5 1.5 0 1.2 -1.8 1.5 -10.5 1.5 l-10.5 0 0 28.5 c0 27.8 0 28.5 -2 28.5 -2 0 -2 -0.7 -2 -28.5z"/>
  <path d="M3971 862 c0 -29.3 0 -30 2 -30 2 0 2 0.7 2 30 0 29.3 0 30 -2 30 -2 0 -2 -0.7 -2 -30z"/>
  <path d="M3992 862 l0 -30 20 0 c17.1 0 20 0.2 20 1.5 0 1.3 -2.7 1.5 -18 1.5 l-18 0 0 13 0 13 16 0 c15.3 0 16 0.1 16 2 0 1.9 -0.7 2 -16 2 l-16 0 0 13.5 c0 12.8 -0.1 13.5 -2 13.5 -2 0 -2 -0.7 -2 -30z"/>
  <path d="M4043 862 c0 -29.3 0 -30 2 -30 2 0 2 0.7 2 30 0 29.3 0 30 -2 30 -2 0 -2 -0.7 -2 -30z"/>
  <path d="M4080.5 890.7 c-8.7 -2.9 -15.3 -8.4 -19.1 -15.7 -2.6 -5.1 -3.1 -17.4 -1 -23.8 2.3 -6.8 8.4 -13.5 15.4 -16.8 10 -4.9 24.2 -3.6 32.7 2.9 1.4 1.1 1.7 1.9 1 2.6 -0.7 0.7 -2.9 0.1 -6.9 -1.9 -14.1 -7.2 -31.7 -1.4 -37.6 12.2 -2.8 6.4 -3.1 16.3 -0.6 22.1 2.5 5.7 8 11.2 13.8 13.7 4.4 1.9 6.5 2.2 13.4 1.8 6.9 -0.4 8.9 -0.9 12.4 -3.2 3.2 -2.1 4.5 -2.5 5.4 -1.6 0.8 0.8 0.6 1.5 -0.9 2.7 -6.8 5.2 -20 7.6 -28 5z"/>
  <path d="M4111 891.3 c0 -0.5 6.1 -13.8 13.4 -29.8 11.9 -25.8 13.7 -29 15.7 -29 2 0 3.2 1.9 9 14.5 3.7 8 9.8 21.4 13.7 29.8 6.3 13.5 6.8 15.2 5.1 15.2 -1.6 0 -3 -2 -6 -8.5 l-3.9 -8.5 -18.1 0.2 -18 0.3 -3.7 8.3 c-2.6 5.8 -4.2 8.2 -5.4 8.2 -1 0 -1.8 -0.3 -1.8 -0.7z m45 -20.6 c0 -0.2 -3.6 -8.1 -7.9 -17.6 -6.5 -14.3 -8.1 -17 -8.9 -15.5 -0.9 1.7 -6.3 13.5 -12.8 28.2 l-2.4 5.2 16 0 c8.8 0 16 -0.1 16 -0.3z"/>
  <path d="M3633.5 821.5 c2.9 -2.6 6 -4.5 7.4 -4.5 2.8 0 2.9 -0.1 -4 5 -7.2 5.5 -9.7 5.1 -3.4 -0.5z"/>
  <path d="M3974.5 821.5 c3 -2.7 5.9 -4.5 7.4 -4.5 2.8 0 2.9 -0.1 -4 5 -7.2 5.5 -9.7 5.1 -3.4 -0.5z"/>
 </g>
 <g fill="#4d4d4d">
  <path d="M3411.5 777.4 c-50.7 -3.9 -91.9 -14.2 -126.5 -31.6 -8.5 -4.3 -16.4 -8.6 -17.6 -9.5 l-2.1 -1.8 15.1 -34 c8.3 -18.7 16.5 -37.3 18.3 -41.3 l3.2 -7.2 7.8 4.7 c23.8 14.1 57.3 26.1 87.8 31.3 22.9 3.9 54.8 3.7 71.2 -0.6 21.5 -5.6 32.2 -19 28.3 -35.3 -1.9 -7.9 -7.3 -13.2 -19.4 -19.1 -12.3 -6 -26.9 -10.3 -59.9 -17.5 -43.5 -9.6 -63.8 -16 -84.7 -26.6 -14.5 -7.3 -22.4 -12.8 -31.8 -22.1 -19.5 -19.2 -28.2 -41.6 -28.3 -72.3 0 -14.1 0.9 -21.9 4.2 -33.5 12.3 -44.5 54.7 -78.7 111.9 -90.4 19 -3.9 32.2 -5 58.5 -5 40.3 0.1 68 4.4 102.8 16.1 15.9 5.3 40.4 17.2 39.9 19.4 -0.6 2.4 -32.3 79.4 -33.1 80.1 -0.4 0.5 -5.5 -1.6 -11.3 -4.5 -21.3 -10.7 -44.6 -18.3 -68.3 -22.3 -14.4 -2.5 -46 -2.5 -57.5 -0.1 -10.5 2.2 -23.5 8.2 -28.5 13.2 -8.5 8.6 -10.9 21.2 -6 31.2 6.2 12.4 20.2 18.1 72.7 29.8 57.5 12.9 82.2 21.3 104.8 36 21.2 13.7 36.4 33.9 42 56 2.8 10.9 4 27.6 2.9 39.5 -5.9 62.7 -58.8 106.9 -138.9 116 -9.9 1.1 -48.8 2.1 -57.5 1.4z"/>
  <path d="M3976 777 c-46.3 -4.4 -86.2 -19.7 -120.5 -46.5 -11 -8.6 -29.6 -28.1 -37.7 -39.5 -7.9 -11.2 -19.1 -32.5 -24.2 -46.2 -8.7 -23.4 -12.1 -44 -12.1 -73.3 0 -23.1 1.2 -33.6 5.6 -51.8 12.9 -52.8 46 -96.7 94.1 -124.5 24.3 -14.2 51.5 -23.2 83.3 -27.8 14.6 -2.1 52 -2.4 67 -0.5 43.8 5.5 80.1 20 109.7 44 9.2 7.4 28 27 27.6 28.7 -0.2 0.7 -15.9 15.4 -35.1 32.7 l-34.7 31.4 -10 -9.8 c-16.6 -16.3 -35.8 -27.6 -56 -32.9 -12 -3.1 -34.7 -3.9 -49 -1.6 -57.3 9.1 -92.5 55.6 -89.6 118.6 0.9 19.9 4.1 32.9 12.1 49.7 13.6 28.2 36.8 46.4 69.3 54.5 7.4 1.9 11.5 2.2 28.2 2.3 16.9 0 20.7 -0.3 28.3 -2.3 22.3 -5.6 40.4 -16.6 59.3 -36.1 l7.3 -7.5 4.3 4 c2.4 2.1 18.1 16.4 35.1 31.7 16.9 15.3 30.7 28.2 30.7 28.6 0 0.5 -3.3 4.6 -7.4 9.2 -30.6 34.6 -74.2 56.5 -126.1 63.4 -14.3 1.9 -46.3 2.7 -59.5 1.5z"/>
  <path d="M1400 571.4 l0 -198.5 103.3 0.4 c112.5 0.4 111.8 0.3 137.2 6.4 47.9 11.3 83.3 37 101.8 73.8 10.7 21.4 16 51.3 13.8 78.7 -3.9 47.9 -25.1 82.6 -64.6 105.9 -5.5 3.2 -10.6 6.2 -11.3 6.6 -1 0.6 10 17.3 40.5 61.8 23 33.6 42.2 61.6 42.6 62.3 0.7 0.9 -11.4 1.2 -59 1.1 l-59.8 0 -36 -53 -36 -52.9 -30.7 0 -30.8 0 0 53 0 53 -55.5 0 -55.5 0 0 -198.6z m200.7 3.8 c15.6 -4.1 27.7 -11.9 34.3 -22.3 5.8 -9 8.2 -17 8.7 -29.9 0.9 -20.1 -3.9 -33.3 -16.4 -45 -9.7 -9.2 -20.9 -13.8 -38.7 -16 -4.4 -0.5 -23.7 -1 -42.8 -1 l-34.8 0 0 58.6 0 58.6 40.8 -0.5 c37.6 -0.3 41.3 -0.5 48.9 -2.5z"/>
  <path d="M1794 571.5 l0 -198.5 211.3 0 211.2 0.1 54 129.4 c29.6 71.2 54.2 129.2 54.6 128.7 0.4 -0.4 25.4 -58.6 55.5 -129.4 l54.8 -128.8 209.8 0 209.8 0 0 43.5 0 43.5 -100 0 -100 0 0 33.5 0 33.5 88.5 0 88.5 0 0 41.5 0 41.5 -88.5 0 -88.5 0 0 36.5 0 36.5 104 0 104 0 0 43.5 0 43.5 -159 0 -159 0 0 -196.2 c0 -121.9 -0.4 -195.8 -0.9 -195.3 -0.6 0.6 -38.6 88.9 -84.6 196.3 l-83.7 195.2 -55.2 0 -55.1 -0.1 -80 -187.5 -80 -187.5 -0.3 32.6 -0.2 32.5 -100.5 0 -100.5 0 0 33.5 0 33.5 88.5 0 88.5 0 0 41.5 0 41.5 -88.5 0 -88.5 0 0 36.5 0 36.5 104 0 104 0 0 43.5 0 43.5 -159 0 -159 0 0 -198.5z"/>
  <path d="M2901 571.4 l0 -198.5 103.8 0.4 c101.2 0.3 104 0.4 117.4 2.5 76.3 12.3 121.7 52 133.5 116.7 2.4 12.7 2.3 41.6 -0.1 55 -6.4 35.7 -24.7 65 -53.5 85.6 -16 11.4 -41.3 22.2 -63.1 26.9 -22.1 4.9 -27.3 5.2 -77.7 5.7 l-48.3 0.5 0 51.9 0 51.9 -56 0 -56 0 0 -198.6z m202 3.2 c22 -6.1 35.9 -19.4 40.5 -38.8 1.7 -7.4 2 -23.5 0.4 -31 -2.9 -14 -13.3 -28 -25.5 -34.5 -14.8 -7.8 -26.1 -9.3 -71.1 -9.3 l-34.3 0 0 58.1 0 58 41.8 -0.4 c36.1 -0.3 42.6 -0.6 48.2 -2.1z"/>
  <path d="M3635 571.5 l0 -198.5 56 0 56 0 0 198.5 0 198.5 -56 0 -56 0 0 -198.5z"/>
  <path d="M589.7 504.8 c-4.7 -14.5 -9.8 -30 -11.2 -34.6 -2 -6.2 -3 -8.2 -4.1 -7.8 -0.9 0.3 -1.4 -0.1 -1.4 -1.3 0 -1.3 2.9 -3.2 11.1 -7 10.8 -5 17.5 -6.7 15 -3.7 -0.8 1 -0.7 2.2 0.4 4.9 2.1 5 2.3 75.7 0.2 75.7 -0.8 0 -4.5 -9.7 -10 -26.2z"/>
  <path d="M542 350.1 c0 -0.5 0.4 -1.1 0.9 -1.3 0.5 -0.1 -0.6 -6.1 -2.5 -13.3 -12 -46 -37.6 -161.6 -36.2 -163.1 0.2 -0.2 2.1 6.3 4.2 14.4 14 53.7 46.5 159.3 49.8 161.3 0.6 0.4 0.7 1.2 0.4 1.8 -0.9 1.3 -16.6 1.5 -16.6 0.2z"/>
 </g>
 <g fill="#5d5c5c">
  <path d="M754.5 846 c0.4 -0.6 -3.8 -7 -9.3 -14.3 -50.5 -67.5 -97.2 -161.4 -140.3 -282.5 l-6.9 -19.3 0.2 -38.4 0.3 -38.4 5.9 13.2 c8.4 18.9 30.9 63.8 40.1 80.2 19 34 36.4 60.9 56.9 88.3 17.8 23.6 29.6 37.3 50.3 58.1 l17.3 17.4 0 64.1 0 64.1 -5.4 4.3 c-4.9 3.8 -10.7 5.8 -9.1 3.2z"/>
  <path d="M587 454.6 c0 -2.9 4.1 -4.9 9.1 -4.4 l3.4 0.3 -2.5 1.7 c-1.4 0.9 -4.2 2.4 -6.2 3.3 -3.8 1.5 -3.8 1.5 -3.8 -0.9z"/>
 </g>
 <g fill="#6b6a6a">
  <path d="M911.5 947.3 c-46.4 -5.9 -93.9 -33.4 -135.3 -78.3 -5.3 -5.8 -10.2 -10.4 -10.9 -10.4 -0.7 0.1 -1.3 -0.6 -1.3 -1.6 0 -1.2 4.7 -4.8 14.3 -11 19 -12.4 67.3 -45.5 86 -59.1 9.3 -6.7 16.1 -10.9 17.5 -10.9 1.9 0 2.2 0.3 1.3 1.3 -0.9 1.1 1 2 9.7 4.5 12.4 3.6 27.4 7.2 30.2 7.2 2 0 2 1.2 2 79.5 l0 79.5 -5.2 -0.1 c-2.9 -0.1 -6.6 -0.4 -8.3 -0.6z"/>
  <path d="M755.4 844.1 c0.3 -0.5 2.8 -2.6 5.6 -4.7 l5 -3.8 0 -64.5 0 -64.5 4.3 4.1 c18 17.4 73.1 54.4 79 52.9 1.2 -0.3 1.7 0.2 1.7 1.8 0 1.6 -4.1 6 -14.2 15.3 -26.6 24.4 -65.8 57.3 -68.4 57.3 -0.8 0 -1.4 0.7 -1.4 1.5 0 0.9 -0.9 1.5 -2.5 1.5 -1.8 0 -2.5 0.5 -2.5 2 0 1.6 -0.7 2 -3.6 2 -1.9 0 -3.3 -0.4 -3 -0.9z"/>
  <path d="M578 458.6 c0 -2.6 1.6 -3.6 6.1 -3.6 4 0 3.6 1.6 -1.1 4 -4.9 2.5 -5 2.5 -5 -0.4z"/>
  <path d="M593 451.4 c0 -2.1 0.5 -2.4 3.7 -2.4 3.5 0 3.6 0.1 1.9 1.9 -1 1 -2.6 2.1 -3.7 2.4 -1.5 0.4 -1.9 0 -1.9 -1.9z"/>
  <path d="M541 351 c0 -1.3 3.4 -3 5.9 -3 1.4 0 2.1 0.6 2.1 2 0 1.7 -0.7 2 -4 2 -2.2 0 -4 -0.4 -4 -1z"/>
  <path d="M552 349.6 c0 -1.6 3.2 -2.6 6 -1.9 3.7 1 2.3 3.3 -2 3.3 -2.7 0 -4 -0.4 -4 -1.4z"/>
 </g>
 <g fill="#767675">
  <path d="M922 868.5 l0 -79.7 2.3 0.5 c10.6 2.6 28.2 4.1 49.7 4.1 24.3 0 37.9 -1.3 59.3 -5.4 5.6 -1.1 10.5 -2 11 -2 0.4 0 0.7 27.9 0.7 62 l0 61.9 -12 7.1 c-16.1 9.6 -30.6 16.3 -46.4 21.5 -19.1 6.4 -30.5 8.5 -48.8 9.2 l-15.8 0.6 0 -79.8z"/>
  <path d="M766 855.5 c0 -2.2 0.4 -2.5 3.5 -2.5 4.3 0 4.4 1 0.6 3.3 -3.8 2.2 -4.1 2.2 -4.1 -0.8z"/>
  <path d="M783 844.6 c0 -1.6 0.6 -2.6 1.5 -2.6 0.8 0 1.5 -0.4 1.5 -1 0 -0.5 0.7 -1 1.5 -1 0.8 0 1.5 -0.4 1.5 -1 0 -0.5 0.7 -1 1.5 -1 0.8 0 1.5 -0.4 1.5 -1 0 -0.5 0.7 -1 1.5 -1 0.8 0 1.5 -0.4 1.5 -1 0 -0.5 0.7 -1 1.5 -1 0.8 0 1.5 -0.4 1.5 -1 0 -0.5 0.7 -1 1.5 -1 0.8 0 1.5 -0.4 1.5 -1 0 -0.5 1.6 -1 3.6 -1 2.1 0 3.3 0.4 2.9 1 -0.7 1.2 -20.8 14.8 -23 15.7 -1.1 0.4 -1.5 -0.2 -1.5 -2.1z"/>
  <path d="M755 845.2 c0 -0.5 6 -5.6 13.3 -11.4 7.2 -5.8 20.2 -16.5 28.7 -23.7 13.1 -11.2 15.6 -12.8 15.8 -11.1 0.6 3.5 -0.6 5 -3.7 5 -2.5 0 -3 0.4 -3.3 2.8 -0.2 2.2 -0.8 2.8 -3.5 3 -2.7 0.3 -3.3 0.7 -3.3 2.8 0 2 -0.5 2.4 -3 2.4 -2.5 0 -3 0.4 -3 2.5 0 2.1 -0.5 2.5 -3 2.5 -2.5 0 -3 0.4 -3 2.5 0 2.1 -0.5 2.5 -3 2.5 -2.5 0 -3 0.4 -3 2.5 0 2 -0.5 2.5 -2.5 2.5 -1.8 0 -2.5 0.5 -2.5 2 0 1.5 -0.7 2 -2.5 2 -1.8 0 -2.5 0.5 -2.5 2 0 1.5 -0.7 2 -2.5 2 -1.8 0 -2.5 0.5 -2.5 2 0 1.5 -0.7 2 -2.5 2 -1.8 0 -2.5 0.5 -2.5 2 0 1.6 -0.7 2 -3 2 -1.6 0 -3 -0.4 -3 -0.8z"/>
  <path d="M823 818.1 c0 -2.9 0.3 -3.1 3.6 -3.1 3.9 0 3.8 0.9 -0.6 4 l-3 2.1 0 -3z"/>
  <path d="M836 809.1 c0 -2.1 0.5 -3.1 1.5 -3.1 0.8 0 1.5 -0.4 1.5 -1 0 -0.5 1.6 -1 3.5 -1 3.1 0 3.5 -0.3 3.5 -2.5 0 -1.6 0.6 -2.5 1.5 -2.5 0.8 0 1.5 -0.4 1.5 -1 0 -0.5 0.9 -1 2 -1 1.1 0 2 -0.7 2 -1.5 0 -0.8 0.7 -1.5 1.5 -1.5 0.8 0 1.5 -0.4 1.5 -1 0 -0.5 0.9 -1 2 -1 1.1 0 2 -0.7 2 -1.5 0 -0.8 0.7 -1.5 1.5 -1.5 0.8 0 1.5 -0.4 1.5 -1 0 -0.5 0.9 -1 2 -1 1.1 0 2 -0.7 2 -1.5 0 -0.8 0.9 -1.5 2 -1.5 1.1 0 2 -0.7 2 -1.5 0 -0.8 0.7 -1.5 1.5 -1.5 0.8 0 1.5 -0.4 1.5 -1 0 -0.5 0.9 -1 2 -1 1.1 0 2 -0.7 2 -1.5 0 -1 1 -1.5 3 -1.5 2.6 0 2.9 0.2 1.9 1.8 -1 1.6 -17.8 14 -38.6 28.5 l-8.3 5.8 0 -3z"/>
  <path d="M823.6 786.9 c1 -1.1 2.7 -2.5 3.6 -3 1.5 -0.8 1.8 -0.5 1.8 2.1 0 2.8 -0.3 3 -3.7 3 -3.6 0 -3.6 0 -1.7 -2.1z"/>
  <path d="M839 772.8 l4.5 -4 0.3 2.6 c0.5 3.8 -1.4 5.6 -5.7 5.6 l-3.6 -0.1 4.5 -4.1z"/>
  <path d="M584 455.6 c0 -2.6 1.6 -3.6 6.1 -3.6 4 0 3.6 1.6 -1.1 4 -4.9 2.5 -5 2.5 -5 -0.4z"/>
  <path d="M543 350.6 c0 -1.3 2.8 -2.6 5.8 -2.6 0.6 0 1.2 0.9 1.2 2 0 1.6 -0.7 2 -3.5 2 -2.3 0 -3.5 -0.5 -3.5 -1.4z"/>
 </g>
 <g fill="#807f7f">
  <path d="M1042 848.7 l0 -62.3 14.3 -3.8 c35.1 -9.4 73.5 -26.1 107.3 -46.5 6.3 -3.9 11.8 -7.1 12 -7.1 0.2 0 0.4 11.5 0.4 25.5 l0 25.4 -10.2 12.8 c-27 34 -63 71.9 -88 92.5 -11.8 9.7 -33.7 25.8 -35.2 25.8 -0.3 0 -0.6 -28 -0.6 -62.3z"/>
  <path d="M769 853.5 c0 -1.6 0.6 -2.5 1.5 -2.5 0.8 0 1.5 -0.4 1.5 -1 0 -0.5 1.6 -1 3.5 -1 1.9 0 3.5 0.3 3.5 0.8 0 0.7 -8.2 6.2 -9.4 6.2 -0.3 0 -0.6 -1.1 -0.6 -2.5z"/>
  <path d="M811 826 c0 -2 0.5 -3 1.5 -3 0.8 0 1.5 -0.4 1.5 -1 0 -0.5 0.7 -1 1.5 -1 0.8 0 1.5 -0.4 1.5 -1 0 -0.5 0.7 -1 1.5 -1 0.8 0 1.5 -0.4 1.5 -1 0 -0.5 1.6 -1 3.6 -1 4.6 0 3.9 0.9 -5.2 7 l-7.4 5.1 0 -3.1z"/>
  <path d="M785.5 820 c0.3 -0.5 1.9 -1.9 3.5 -3 l3 -2.1 0 3 c0 2.9 -0.3 3.1 -3.6 3.1 -2 0 -3.3 -0.4 -2.9 -1z"/>
  <path d="M833 811.1 c0 -2.9 0.3 -3.1 3.6 -3.1 3.9 0 3.8 0.9 -0.6 4 l-3 2.1 0 -3z"/>
  <path d="M843 804.1 c0 -2.9 0.2 -3.1 3.5 -3.1 3.1 0 3.5 -0.3 3.5 -2.5 0 -2.2 0.4 -2.5 3.5 -2.5 3.1 0 3.5 -0.3 3.5 -2.5 0 -2.2 0.4 -2.5 3.5 -2.5 3.1 0 3.5 -0.3 3.5 -2.5 0 -2.2 0.4 -2.5 3.6 -2.5 1.9 0 3.3 0.4 3 0.9 -0.4 0.5 -5.2 4.2 -10.9 8.2 -5.6 4 -11.7 8.4 -13.4 9.7 l-3.3 2.4 0 -3.1z"/>
  <path d="M816.5 793.4 c3.8 -3.4 4 -3.4 4.3 -1.4 0.6 3.8 -0.5 5 -4.5 5 l-3.8 -0.1 4 -3.5z"/>
  <path d="M824.6 786.3 c5.2 -4.7 5.4 -4.8 5.4 -1.4 0 2.9 -0.2 3.1 -3.7 3.1 -3.6 0 -3.6 0 -1.7 -1.7z"/>
  <path d="M875 781.1 c0 -2.9 0.3 -3.1 3.6 -3.1 3.9 0 3.8 0.9 -0.6 4 l-3 2.1 0 -3z"/>
  <path d="M836 775.8 l4.5 -4 0.3 2.6 c0.5 3.8 -1.4 5.6 -5.7 5.6 l-3.6 -0.1 4.5 -4.1z"/>
  <path d="M574 460.1 c0 -2.1 1.9 -3.1 5.6 -3.1 1.5 0 2.4 -0.6 2.4 -1.5 0 -1 1.1 -1.5 3.5 -1.5 1.9 0 3.5 0.4 3.5 0.8 0 1 -11.7 7.2 -13.6 7.2 -0.8 0 -1.4 -0.9 -1.4 -1.9z"/>
 </g>
 <g fill="#8b8b8a">
  <path d="M775 849.5 c0 -1.6 0.6 -2.5 1.5 -2.5 0.8 0 1.5 -0.4 1.5 -1 0 -0.5 0.7 -1 1.5 -1 0.8 0 1.5 -0.4 1.5 -1 0 -0.5 1.6 -1 3.5 -1 1.9 0 3.5 0.3 3.5 0.8 0 0.7 -11.2 8.2 -12.3 8.2 -0.4 0 -0.7 -1.1 -0.7 -2.5z"/>
  <path d="M754.7 845.6 c0.4 -0.7 8.2 -7.3 17.3 -14.7 9.1 -7.3 23.3 -19.1 31.5 -26.1 12.8 -11 15 -12.6 15.3 -10.8 0.6 3.7 -0.5 5 -4.3 5 -3.2 0 -3.5 0.2 -3.5 3 0 2.8 -0.3 3 -3.5 3 -3.2 0 -3.5 0.2 -3.5 3 0 2.7 -0.3 3 -2.9 3 -2.5 0 -3 0.4 -3.3 2.8 -0.2 2.2 -0.8 2.8 -3.5 3 -2.7 0.3 -3.3 0.7 -3.3 2.8 0 1.9 -0.5 2.4 -2.5 2.4 -1.8 0 -2.5 0.5 -2.5 2 0 1.6 -0.7 2 -3 2 -2.5 0 -3 0.4 -3 2.5 0 2 -0.5 2.5 -2.5 2.5 -1.8 0 -2.5 0.5 -2.5 2 0 1.5 -0.7 2 -2.5 2 -1.8 0 -2.5 0.5 -2.5 2 0 1.5 -0.7 2 -2.5 2 -1.8 0 -2.5 0.5 -2.5 2 0 1.5 -0.7 2 -2.5 2 -1.8 0 -2.5 0.5 -2.5 2 0 1.6 -0.7 2 -3 2 -2.4 0 -2.9 -0.3 -2.3 -1.4z"/>
  <path d="M802 832 c0 -2 0.5 -3 1.5 -3 0.8 0 1.5 -0.4 1.5 -1 0 -0.5 0.7 -1 1.5 -1 0.8 0 1.5 -0.4 1.5 -1 0 -0.5 1.6 -1 3.6 -1 4.4 0 3.9 0.9 -3.7 6 l-5.9 4.1 0 -3.1z"/>
  <path d="M824 817 c0 -2 0.5 -3 1.5 -3 0.8 0 1.5 -0.4 1.5 -1 0 -0.5 0.7 -1 1.5 -1 0.8 0 1.5 -0.4 1.5 -1 0 -0.5 1.6 -1 3.5 -1 3.1 0 3.5 -0.3 3.5 -2.5 0 -1.6 0.6 -2.5 1.5 -2.5 0.8 0 1.5 -0.4 1.5 -1 0 -0.5 1.6 -1 3.5 -1 3.1 0 3.5 -0.3 3.5 -2.5 0 -2.2 0.4 -2.5 3.5 -2.5 3.1 0 3.5 -0.3 3.5 -2.5 0 -2.2 0.4 -2.5 3.5 -2.5 3.1 0 3.5 -0.3 3.5 -2.5 0 -2.2 0.4 -2.5 3.5 -2.5 3.1 0 3.5 -0.3 3.5 -2.5 0 -1.8 0.5 -2.5 2 -2.5 1.1 0 2 -0.7 2 -1.5 0 -1.1 1.1 -1.5 3.6 -1.5 2.1 0 3.3 0.4 2.9 1 -0.6 0.9 -36.8 27 -49.7 35.9 l-4.8 3.2 0 -3.1z"/>
  <path d="M823.5 787.4 c3.8 -3.4 4 -3.4 4.3 -1.4 0.6 3.8 -0.5 5 -4.5 5 l-3.8 -0.1 4 -3.5z"/>
  <path d="M1173 756.8 l0 -26.6 6.8 -4.3 c16.9 -10.6 41.4 -29.3 59.4 -45.2 10.6 -9.4 11.4 -11.2 -8 19.3 -17.2 27.1 -50.8 75.4 -57.3 82.5 -0.5 0.5 -0.9 -10.4 -0.9 -25.7z"/>
  <path d="M833.5 778.4 c3.8 -3.4 4 -3.4 4.3 -1.4 0.6 3.8 -0.5 5 -4.5 5 l-3.8 -0.1 4 -3.5z"/>
  <path d="M846.2 766.5 c4.4 -4.1 5.8 -4.4 5.8 -1.2 0 3.3 -1.8 4.7 -5.9 4.7 l-3.6 -0.1 3.7 -3.4z"/>
  <path d="M1238.5 626 c-11 -3.6 -20.3 -12.6 -24.5 -23.7 -3.2 -8.5 -2.6 -21.6 1.5 -29.8 3.8 -8 11 -14.9 19.3 -18.8 6 -2.9 7.7 -3.2 15.8 -3.2 8.4 0 9.5 0.2 16.6 3.8 14 6.9 20.9 17.6 21.6 33.2 0.3 7.5 0 10 -1.8 14.8 -7.4 19.7 -28.6 30 -48.5 23.7z"/>
  <path d="M1218.5 489.9 c-39.7 -12.4 -47.5 -14.5 -48.5 -12.9 -0.7 1.1 -1 0.7 -1 -1.7 0 -4.5 0.9 -6.3 3.3 -6.3 1.1 0 1.7 0.3 1.4 0.7 -0.4 0.3 14.7 6.4 33.4 13.4 18.8 7 34.4 13.1 34.7 13.4 1 1 -1.4 0.3 -23.3 -6.6z"/>
  <path d="M588 453.6 c0 -2.6 3.4 -4.6 8 -4.6 5.4 0 2.7 2.9 -5.5 6 -2.2 0.8 -2.5 0.7 -2.5 -1.4z"/>
  <path d="M1037.8 442.9 c-0.8 -2.3 -73.4 -15.3 -112.8 -20.3 -33.3 -4.3 -64.3 -6.7 -102.2 -8.2 l-16.8 -0.6 0 -23.3 0 -23.2 12 2.3 c58.4 11.2 141.1 32 211.3 53.3 7.8 2.3 9.7 2.6 9.7 1.4 0 -0.8 0.5 -1.1 1 -0.8 1.1 0.7 1.4 16.3 0.4 18.9 -0.7 1.9 -2.1 2.1 -2.6 0.5z"/>
  <path d="M544 350.6 c0 -0.7 1 -1.6 2.3 -2 4.1 -1.1 5.7 -0.7 5.7 1.4 0 1.7 -0.7 2 -4 2 -2.7 0 -4 -0.4 -4 -1.4z"/>
 </g>
 <g fill="#9c9c9b">
  <path d="M764 856.5 c0 -1.6 0.6 -2.5 1.5 -2.5 0.8 0 1.5 -0.4 1.5 -1 0 -0.5 0.7 -1 1.5 -1 0.8 0 1.5 -0.4 1.5 -1 0 -0.5 1.6 -1 3.5 -1 1.9 0 3.5 0.3 3.5 0.8 0 0.8 -8.2 6.2 -11.2 7.4 -1.4 0.6 -1.8 0.2 -1.8 -1.7z"/>
  <path d="M784 843.6 c0 -1.6 0.6 -2.6 1.5 -2.6 0.8 0 1.5 -0.4 1.5 -1 0 -0.5 0.7 -1 1.5 -1 0.8 0 1.5 -0.4 1.5 -1 0 -0.5 0.7 -1 1.5 -1 0.8 0 1.5 -0.4 1.5 -1 0 -0.5 0.7 -1 1.5 -1 0.8 0 1.5 -0.4 1.5 -1 0 -0.5 0.7 -1 1.5 -1 0.8 0 1.5 -0.4 1.5 -1 0 -0.5 1.6 -1 3.6 -1 2.1 0 3.3 0.4 2.9 1 -0.7 1.2 -17.8 12.8 -20 13.6 -1.1 0.5 -1.5 -0.1 -1.5 -2z"/>
  <path d="M757 843.6 c0 -0.3 10 -8.5 15.8 -12.9 0.9 -0.7 1.2 -0.2 1.2 2.2 0 2.6 -0.4 3.1 -2.5 3.1 -1.8 0 -2.5 0.5 -2.5 2 0 1.5 -0.7 2 -2.5 2 -1.8 0 -2.5 0.5 -2.5 2 0 1.6 -0.7 2 -3.5 2 -1.9 0 -3.5 -0.2 -3.5 -0.4z"/>
  <path d="M778.5 826 c0.3 -0.5 1.9 -1.9 3.5 -3 l3 -2.1 0 3 c0 2.9 -0.3 3.1 -3.6 3.1 -2 0 -3.3 -0.4 -2.9 -1z"/>
  <path d="M818 821 c0 -2 0.5 -3 1.5 -3 0.8 0 1.5 -0.4 1.5 -1 0 -0.5 1.6 -1 3.6 -1 4.2 0 3.8 0.9 -2.2 5 l-4.4 3.1 0 -3.1z"/>
  <path d="M831 812.1 c0 -2.1 0.5 -3.1 1.5 -3.1 0.8 0 1.5 -0.4 1.5 -1 0 -0.5 1.6 -1 3.5 -1 3.1 0 3.5 -0.3 3.5 -2.5 0 -1.6 0.6 -2.5 1.5 -2.5 0.8 0 1.5 -0.4 1.5 -1 0 -0.5 1.6 -1 3.5 -1 3.1 0 3.5 -0.3 3.5 -2.5 0 -2.2 0.4 -2.5 3.5 -2.5 3.1 0 3.5 -0.3 3.5 -2.5 0 -2.2 0.4 -2.5 3.5 -2.5 3.1 0 3.5 -0.3 3.5 -2.5 0 -1.8 0.5 -2.5 2 -2.5 1.1 0 2 -0.7 2 -1.5 0 -1 1.1 -1.5 3.5 -1.5 3.1 0 3.5 -0.3 3.5 -2.5 0 -2.2 0.4 -2.5 3.6 -2.5 2 0 3.3 0.4 2.9 1 -0.4 0.7 -31.5 23.2 -48.2 34.9 l-3.3 2.2 0 -3z"/>
  <path d="M800 807.9 c2.5 -2.1 5.7 -4.9 7.3 -6 l2.7 -2 0 3 c0 2.9 -0.3 3.1 -3.5 3.1 -3.2 0 -3.5 0.2 -3.5 3 0 2.8 -0.2 3 -3.7 3 l-3.8 -0.1 4.5 -4z"/>
  <path d="M819.5 791 c0.3 -0.5 1.9 -1.9 3.5 -3 l3 -2.1 0 3 c0 2.9 -0.3 3.1 -3.6 3.1 -2 0 -3.3 -0.4 -2.9 -1z"/>
  <path d="M829.5 782 c0.3 -0.5 1.9 -1.9 3.5 -3 l3 -2.1 0 3 c0 2.9 -0.3 3.1 -3.6 3.1 -2 0 -3.3 -0.4 -2.9 -1z"/>
  <path d="M842.5 770 c0.3 -0.5 1.9 -1.9 3.5 -3 l3 -2.1 0 3 c0 2.9 -0.3 3.1 -3.6 3.1 -2 0 -3.3 -0.4 -2.9 -1z"/>
  <path d="M1169 474.1 c0 -4.2 1 -6.1 3.1 -6.1 1.5 0 1.8 0.6 1.5 2.3 -0.7 3.6 -1.7 5.5 -3.2 6.1 -1 0.4 -1.4 -0.3 -1.4 -2.3z"/>
  <path d="M577 458.6 c0 -2.6 1.6 -3.6 6.1 -3.6 4 0 3.6 1.6 -1.1 4 -4.9 2.5 -5 2.5 -5 -0.4z"/>
  <path d="M594 450.6 c0 -2.3 0.4 -2.6 3.5 -2.6 5.3 0 4.6 1.3 -2.7 4.8 -0.5 0.2 -0.8 -0.8 -0.8 -2.2z"/>
  <path d="M1037.7 442.8 c-0.8 -3.1 0.2 -6.8 1.9 -6.8 1 0 1.4 1.3 1.4 4.5 0 4.9 -2.3 6.4 -3.3 2.3z"/>
  <path d="M710 386.6 l0 -33.6 2.4 0 c6.8 0 88.4 12.6 94.9 14.6 1.5 0.5 1.7 2.5 1.7 23.3 l0 22.7 -30.2 1.2 c-26.8 1.1 -40.2 2.1 -62.5 4.7 l-6.3 0.8 0 -33.7z"/>
  <path d="M546 350.6 c0 -1.3 2.8 -2.6 5.8 -2.6 0.6 0 1.2 0.9 1.2 2 0 1.6 -0.7 2 -3.5 2 -2.3 0 -3.5 -0.5 -3.5 -1.4z"/>
 </g>
 <g fill="#acacab">
  <path d="M773 850.5 c0 -1.6 0.6 -2.5 1.5 -2.5 0.8 0 1.5 -0.4 1.5 -1 0 -0.5 0.7 -1 1.5 -1 0.8 0 1.5 -0.4 1.5 -1 0 -0.5 1.6 -1 3.5 -1 1.9 0 3.5 0.3 3.5 0.8 0 0.7 -11.2 8.2 -12.3 8.2 -0.4 0 -0.7 -1.1 -0.7 -2.5z"/>
  <path d="M754.1 846.1 c0.7 -1 2 -2.3 3 -3 1.7 -1 1.9 -0.8 1.9 1.9 0 2.7 -0.3 3 -3 3 -2.7 0 -2.9 -0.2 -1.9 -1.9z"/>
  <path d="M803 831 c0 -2 0.5 -3 1.5 -3 0.8 0 1.5 -0.4 1.5 -1 0 -0.5 0.7 -1 1.5 -1 0.8 0 1.5 -0.4 1.5 -1 0 -0.5 0.7 -1 1.5 -1 0.8 0 1.5 -0.4 1.5 -1 0 -0.5 0.7 -1 1.5 -1 0.8 0 1.5 -0.4 1.5 -1 0 -0.5 1.6 -1 3.6 -1 2.1 0 3.3 0.4 2.9 1 -0.4 0.6 -4.7 3.7 -9.6 7 l-8.9 6.1 0 -3.1z"/>
  <path d="M773 830.6 c0.8 -0.7 8.3 -7 16.5 -13.8 8.3 -6.8 19.5 -16.4 25 -21.2 8.7 -7.7 10 -8.5 10.3 -6.6 0.6 3.7 -0.5 5 -4.2 5 -3.2 0 -3.5 0.3 -3.8 3.3 -0.3 2.9 -0.6 3.2 -4 3.5 -3.5 0.3 -3.8 0.6 -3.8 3.3 0 2.7 -0.3 2.9 -3.5 2.9 -3.2 0 -3.5 0.2 -3.5 3 0 2.7 -0.3 3 -3 3 -2.5 0 -3 0.4 -3 2.5 0 2.1 -0.5 2.5 -3 2.5 -2.5 0 -3 0.4 -3 2.5 0 2.1 -0.5 2.5 -3 2.5 -2.5 0 -3 0.4 -3 2.5 0 2 -0.5 2.5 -2.5 2.5 -1.8 0 -2.5 0.5 -2.5 2 0 1.6 -0.7 2 -3.7 2 -3.2 0 -3.5 -0.2 -2.3 -1.4z"/>
  <path d="M825 816 c0 -2 0.5 -3 1.5 -3 0.8 0 1.5 -0.4 1.5 -1 0 -0.5 1.6 -1 3.6 -1 4.2 0 3.8 0.9 -2.2 5 l-4.4 3.1 0 -3.1z"/>
  <path d="M838 807.1 c0 -2.9 0.3 -3.1 3.6 -3.1 3.9 0 3.8 0.9 -0.6 4 l-3 2.1 0 -3z"/>
  <path d="M848 800.1 c0 -2.9 0.3 -3.1 3.5 -3.1 3.1 0 3.5 -0.3 3.5 -2.5 0 -2.2 0.4 -2.5 3.5 -2.5 3.1 0 3.5 -0.3 3.5 -2.5 0 -2.2 0.4 -2.5 3.5 -2.5 1.9 0 3.5 0.2 3.5 0.5 0 0.4 -2.4 2.2 -15.7 11.9 l-5.3 3.8 0 -3.1z"/>
  <path d="M830.5 781.4 c3.8 -3.4 4 -3.4 4.3 -1.4 0.6 3.8 -0.5 5 -4.5 5 l-3.8 -0.1 4 -3.5z"/>
  <path d="M873 782.1 c0 -2.9 0.3 -3.1 3.6 -3.1 3.9 0 3.8 0.9 -0.6 4 l-3 2.1 0 -3z"/>
  <path d="M843 769.8 l4.5 -4 0.3 2.6 c0.5 3.8 -1.4 5.6 -5.7 5.6 l-3.6 -0.1 4.5 -4.1z"/>
  <path d="M1168 475 c0 -2.5 0.4 -3 2.5 -3 1.9 0 2.3 0.4 1.8 1.8 -0.7 1.8 -2.8 4.2 -3.7 4.2 -0.3 0 -0.6 -1.3 -0.6 -3z"/>
  <path d="M573 460.6 c0 -2.5 1.7 -3.6 5.6 -3.6 1.3 0 2.4 -0.6 2.4 -1.3 0 -1.8 8.3 -5.7 12 -5.7 5.1 0 3.3 1.9 -6.2 6.6 -14.1 6.8 -13.8 6.8 -13.8 4z"/>
  <path d="M614 395 l0 -49 2.8 0 c16.1 0 82.5 4.8 93 6.6 l3.2 0.6 0 33.4 0 33.3 -3.2 0.5 c-31.4 5.1 -56.8 11 -79.9 18.6 -8.4 2.7 -15.4 5 -15.6 5 -0.2 0 -0.3 -22 -0.3 -49z"/>
  <path d="M547 350.6 c0 -0.7 1 -1.6 2.3 -2 4.1 -1.1 5.7 -0.7 5.7 1.4 0 1.7 -0.7 2 -4 2 -2.7 0 -4 -0.4 -4 -1.4z"/>
 </g>
 <g fill="#bcbcbb">
  <path d="M765 855.5 c0 -1.6 0.6 -2.5 1.5 -2.5 0.8 0 1.5 -0.4 1.5 -1 0 -0.5 0.7 -1 1.5 -1 0.8 0 1.5 -0.4 1.5 -1 0 -0.5 1.6 -1 3.5 -1 1.9 0 3.5 0.3 3.5 0.8 0 0.7 -11.2 8.2 -12.3 8.2 -0.4 0 -0.7 -1.1 -0.7 -2.5z"/>
  <path d="M782 844.6 c0 -1.6 0.6 -2.6 1.5 -2.6 0.8 0 1.5 -0.4 1.5 -1 0 -0.5 0.7 -1 1.5 -1 0.8 0 1.5 -0.4 1.5 -1 0 -0.5 0.7 -1 1.5 -1 0.8 0 1.5 -0.4 1.5 -1 0 -0.5 0.7 -1 1.5 -1 0.8 0 1.5 -0.4 1.5 -1 0 -0.5 0.7 -1 1.5 -1 0.8 0 1.5 -0.4 1.5 -1 0 -0.5 0.7 -1 1.5 -1 0.8 0 1.5 -0.4 1.5 -1 0 -0.5 1.6 -1 3.6 -1 2.1 0 3.3 0.4 2.9 1 -0.7 1.2 -20.8 14.8 -23 15.7 -1.1 0.4 -1.5 -0.2 -1.5 -2.1z"/>
  <path d="M756 844.6 c0 -0.3 17.9 -14.8 25.8 -20.9 0.9 -0.7 1.2 -0.2 1.2 2.2 0 2.6 -0.4 3.1 -2.5 3.1 -1.8 0 -2.5 0.5 -2.5 2 0 1.5 -0.7 2 -2.4 2 -1.8 0 -2.5 0.6 -2.8 2.3 -0.2 1.4 -1.1 2.3 -2.5 2.5 -1.3 0.2 -2.3 1 -2.3 1.8 0 0.8 -1 1.4 -2.5 1.4 -1.8 0 -2.5 0.5 -2.5 2 0 1.6 -0.7 2 -3.5 2 -1.9 0 -3.5 -0.2 -3.5 -0.4z"/>
  <path d="M822 818.1 c0 -2.9 0.3 -3.1 3.6 -3.1 3.9 0 3.8 0.9 -0.6 4 l-3 2.1 0 -3z"/>
  <path d="M788.5 818 c0.3 -0.5 1.9 -1.9 3.5 -3 l3 -2.1 0 3 c0 2.9 -0.3 3.1 -3.6 3.1 -2 0 -3.3 -0.4 -2.9 -1z"/>
  <path d="M835 809.1 c0 -2.9 0.3 -3.1 3.6 -3.1 3.9 0 3.8 0.9 -0.6 4 l-3 2.1 0 -3z"/>
  <path d="M866 787.1 c0 -2.9 0.3 -3.1 3.6 -3.1 3.9 0 3.8 0.9 -0.6 4 l-3 2.1 0 -3z"/>
  <path d="M877 779.1 c0 -2.9 0.3 -3.1 3.6 -3.1 3.9 0 3.8 0.9 -0.6 4 l-3 2.1 0 -3z"/>
  <path d="M514 428.8 l0 -75.5 7.8 -1.1 c23.3 -3.6 58.9 -6.2 83.5 -6.2 l11.7 0 0 48.8 0 48.7 -5.1 1.9 c-25.9 9.1 -61.4 29.3 -83.8 47.5 -5.1 4.2 -10.4 8.4 -11.7 9.4 l-2.4 1.9 0 -75.4z"/>
 </g>
 <g fill="#f9e97b">
  <path d="M1016.5 310.3 c-1.4 -3.8 -6.1 -13.5 -10.4 -21.8 -18.3 -35.6 -39.3 -63.7 -71.6 -96 -29.5 -29.5 -65.6 -57.6 -99 -77 -4.4 -2.6 -7.1 -4.4 -6 -4.1 1.1 0.3 8.5 2.1 16.5 4.1 37.3 9.3 89.6 25.8 124 39 104.2 40.1 172.7 89.7 204 147.7 2.1 4 4.6 9 5.5 11.1 l1.5 3.7 -80.9 0 -80.9 0 -2.7 -6.7z"/>
  <path d="M641.3 173.5 c-11.7 -3.2 -20.7 -10.6 -26 -21.2 -2.5 -5.2 -2.8 -6.8 -2.8 -16.3 0 -9.9 0.2 -11 3.2 -17.1 3.9 -8 11.1 -15 19.1 -18.7 5 -2.4 6.9 -2.7 15.7 -2.7 9.3 0 10.5 0.2 16.6 3.2 15.3 7.6 24.2 24.1 21.8 40.7 -2.2 15.8 -14.7 29.1 -30.7 32.5 -6.7 1.4 -10.4 1.3 -16.9 -0.4z"/>
 </g>
 <g fill="#efe38f">
  <path d="M1034 473.3 c4.4 -20.2 5.8 -66.8 2.7 -89.3 -3 -21.3 -9 -45 -16 -63.2 l-2.6 -6.8 80.8 0 80.9 0 2 4.8 c15.2 36.1 15.9 79.9 2 123.2 -3 9.5 -11.8 32.3 -13 33.8 -0.8 0.9 -15.9 1.2 -69.3 1.2 l-68.3 0 0.8 -3.7z"/>
 </g>
 <g fill="#e7de9e">
  <path d="M952.1 650.1 c6.5 -8.8 29.9 -44.7 34.7 -53.1 22.8 -40 38.4 -80.2 46.8 -120.7 l0.4 -2.3 68.9 0 68.8 0 -8.1 15.8 c-23.5 45.2 -57.1 89 -107.9 140.9 l-20.9 21.3 -42 0 c-41 0 -42 0 -40.7 -1.9z"/>
  <path d="M1038.3 430.5 c0 -2.7 0.2 -3.8 0.4 -2.2 0.2 1.5 0.2 3.7 0 5 -0.2 1.2 -0.4 0 -0.4 -2.8z"/>
 </g>
 <g fill="#cccccc">
  <path d="M572.5 972.3 c0.6 -0.5 8.4 -5.6 17.5 -11.3 16.4 -10.3 64.5 -42.1 77 -50.8 3.6 -2.5 14.9 -10.6 25.2 -17.9 l18.7 -13.3 9.6 0 c6.6 0 9.6 0.3 9.3 1.1 -0.5 1.4 -39.9 25.7 -74.8 46.1 -38.1 22.3 -84.9 48.4 -82.5 46.1z"/>
  <path d="M456.9 968.7 c-10.2 -4.3 -17.3 -11 -21.8 -20.6 -2.3 -4.9 -2.6 -6.9 -2.6 -15.6 0 -8.9 0.3 -10.7 2.8 -16.1 7.6 -16.3 25.7 -25.5 43.1 -21.9 36.2 7.6 42.3 55.8 9.2 72.8 -5.3 2.7 -7.3 3.1 -15.6 3.4 -8.2 0.3 -10.3 0 -15.1 -2z"/>
  <path d="M421 525.7 l0 -141.4 12.8 -6 c15.6 -7.5 28.5 -12.4 45.1 -16.9 10.4 -2.9 35.1 -8.4 37.5 -8.4 0.3 0 0.6 33.4 0.6 74.2 l0 74.2 -12.8 13 c-15.7 16.1 -23.1 25.1 -34.7 42.6 -19 28.5 -34 63 -43.1 99.3 -5.5 22.1 -5.4 24.4 -5.4 -130.6z"/>
 </g>
 <g fill="#dcd7b4">
  <path d="M727.2 866.7 c90.3 -67.8 169.2 -142.8 216.2 -205.4 l9.1 -12.2 42.5 0 42.5 0 -5.7 5.2 c-27.6 25.3 -36.3 33.1 -49.8 44.7 -63.7 54.6 -141.4 111.4 -227.7 166.3 l-26.1 16.7 -10.7 0 -10.7 0 20.4 -15.3z"/>
 </g>
 <g fill="#dbdbdb">
  <path d="M413 840.2 c-38.2 -80.7 -62.3 -147.9 -74 -206.2 -16.6 -82.6 -9.6 -145.8 21.4 -193.5 13.4 -20.5 31.6 -38 54.2 -51.9 l8.9 -5.5 0.3 141.2 c0.2 138 0.2 141.4 -1.8 151.2 -6.3 31.1 -8.4 58.7 -7.7 99.3 0.5 31.7 1.7 46.5 5.7 70.9 1 6.4 1.8 11.8 1.7 12 -0.2 0.1 -4.1 -7.7 -8.7 -17.5z"/>
 </g>
</svg>